<svg width="546" height="613" viewBox="0 0 546 613" fill="none" xmlns="http://www.w3.org/2000/svg">
<path fill-rule="evenodd" clip-rule="evenodd" d="M201.474 0.786268C201.474 1.21871 201.098 1.57254 200.64 1.57254C200.182 1.57254 200.026 1.21871 200.293 0.786268C200.561 0.35382 200.935 0 201.127 0C201.318 0 201.474 0.35382 201.474 0.786268ZM541.82 7.02216C542.07 7.42473 541.972 7.93973 541.605 8.16696C541.237 8.39419 540.936 8.06475 540.936 7.43495C540.936 6.1093 541.184 5.99372 541.82 7.02216ZM73.5512 40.0454C73.8007 40.448 73.7031 40.963 73.3356 41.1902C72.9681 41.4174 72.6667 41.088 72.6667 40.4582C72.6667 39.1325 72.9153 39.017 73.5512 40.0454ZM1.1805 93.5659C1.44808 93.9983 1.29148 94.3521 0.833446 94.3521C0.375408 94.3521 -1.06072e-05 93.9983 -1.06072e-05 93.5659C-1.06072e-05 93.1334 0.1558 92.7796 0.347043 92.7796C0.538285 92.7796 0.912917 93.1334 1.1805 93.5659ZM506.045 160.888C507.56 161.078 509.562 161.617 510.493 162.087C511.424 162.556 512.661 162.782 513.24 162.589C513.82 162.396 514.751 162.694 515.308 163.25C515.866 163.807 516.901 164.041 517.609 163.77C518.47 163.439 518.707 163.581 518.326 164.198C517.747 165.133 520.809 166.834 523.581 167.119C525.3 167.295 526.407 168.261 524.889 168.261C524.283 168.261 524.662 168.871 525.742 169.631C526.812 170.384 528.042 170.886 528.475 170.745C528.908 170.604 528.996 170.755 528.67 171.081C528.025 171.726 530.246 174.551 531.398 174.551C531.789 174.551 531.936 174.271 531.724 173.929C531.512 173.586 532.023 173.254 532.859 173.191C534.086 173.098 534.235 173.348 533.63 174.478C532.882 175.874 533.89 178.025 536.581 180.772C537.518 181.728 537.766 181.728 538.372 180.772C538.822 180.062 539.08 179.999 539.088 180.599C539.094 181.114 538.726 181.765 538.27 182.048C537.71 182.393 537.799 183.113 538.538 184.256C539.143 185.189 539.881 186.94 540.179 188.147C540.476 189.354 541.059 190.131 541.475 189.875C541.889 189.619 542.027 189.936 541.779 190.581C541.531 191.226 541.702 192.394 542.158 193.177C542.614 193.96 542.998 194.218 543.011 193.75C543.024 193.281 543.567 192.897 544.218 192.897C545.272 192.897 545.272 193.041 544.218 194.204C542.88 195.682 542.617 198.926 543.837 198.926C544.302 198.926 544.44 199.835 544.166 201.088C543.803 202.753 543.887 202.979 544.533 202.071C545.155 201.196 545.355 202.415 545.305 206.788C545.263 210.571 545.036 211.981 544.674 210.72C544.202 209.075 544.02 209.411 543.559 212.782C543.255 214.997 543.25 217.443 543.548 218.218C543.895 219.122 543.789 219.441 543.251 219.109C542.25 218.491 541.639 219.877 541.839 222.317C541.919 223.29 541.802 223.903 541.579 223.681C541.357 223.458 540.411 224.785 539.48 226.63C537.95 229.655 537.906 230.074 539.033 230.908C540.128 231.72 540.089 231.816 538.706 231.694C537.473 231.586 537.172 231.981 537.316 233.522C537.452 234.973 537.348 235.133 536.92 234.136C536.434 233 536.027 233.242 534.376 235.651C533.295 237.227 532.394 238.896 532.375 239.361C532.355 239.825 531.833 240.09 531.216 239.95C530.421 239.77 530.54 240.229 531.625 241.523C532.467 242.527 532.679 242.935 532.097 242.428C531.514 241.922 530.461 241.726 529.756 241.995C527.504 242.852 520.308 249.079 520.86 249.693C521.153 250.019 520.976 250.047 520.469 249.757C519.961 249.467 517.068 250.472 514.04 251.99C511.011 253.508 507.953 254.751 507.243 254.751C506.533 254.751 506.113 255.016 506.308 255.34C506.504 255.665 504.69 256.013 502.277 256.114C499.864 256.215 497.689 256.569 497.442 256.9C497.196 257.231 494.516 257.541 491.486 257.588C487.891 257.645 486.66 257.467 487.944 257.077C489.877 256.491 489.871 256.479 487.588 256.402C485.636 256.336 483.848 257.731 476.418 265.12C471.553 269.959 467.75 274.205 467.967 274.555C468.184 274.907 467.766 275.194 467.039 275.194C465.891 275.194 465.859 275.377 466.796 276.57C467.738 277.77 467.724 277.828 466.685 277.021C465.721 276.272 465.097 276.523 463.409 278.336C462.263 279.567 461.56 280.836 461.846 281.155C462.132 281.474 461.963 281.505 461.468 281.224C459.092 279.867 457.323 286.863 458.967 291.116C459.901 293.533 460.376 293.719 461.974 292.295C462.905 291.466 462.924 291.517 462.092 292.62C461.285 293.691 461.335 294.118 462.365 294.979C463.057 295.557 464.475 296.825 465.517 297.799C466.558 298.772 467.781 299.568 468.234 299.568C468.686 299.568 469.056 299.934 469.056 300.382C469.056 300.915 469.641 300.883 470.75 300.291C472.201 299.515 472.372 299.57 471.943 300.686C471.637 301.484 471.895 302.127 472.611 302.35C473.253 302.55 474.398 302.946 475.155 303.231C475.912 303.516 476.843 303.678 477.222 303.591C477.601 303.504 478.432 304.175 479.067 305.081C480.18 306.669 480.298 306.679 482.312 305.37C484.244 304.114 484.319 304.113 483.306 305.347C482.704 306.081 482.35 306.791 482.519 306.924C487.199 310.579 490.757 312.935 491.599 312.935C492.186 312.935 492.666 313.299 492.666 313.745C492.666 314.192 493.286 314.787 494.043 315.069C495.728 315.696 498.651 318.281 503.971 323.846C510.641 330.824 511.305 331.593 511.828 332.956C512.113 333.698 512.725 334.019 513.244 333.699C513.812 333.348 513.946 333.478 513.598 334.04C512.884 335.195 515.522 339.74 516.542 339.11C516.963 338.851 517.067 339.025 516.775 339.499C516.095 340.596 518.949 345.364 519.815 344.579C520.171 344.256 520.233 344.63 519.952 345.409C519.669 346.195 519.993 347.666 520.677 348.71C521.356 349.745 521.846 350.7 521.766 350.83C521.685 350.962 522.031 352.599 522.535 354.468C523.314 357.358 523.629 357.721 524.63 356.892C525.656 356.04 525.69 356.171 524.896 357.913C523.89 360.12 524.961 363.245 526.732 363.267C527.346 363.275 527.276 363.54 526.537 364.007C525.552 364.629 525.529 365.427 526.379 369.539C526.925 372.181 527.582 377.244 527.839 380.789C528.096 384.336 528.521 387.414 528.784 387.63C529.384 388.124 529.356 390.91 528.741 391.955C528.487 392.388 528.499 393.344 528.77 394.081C529.041 394.818 529.031 404.548 528.75 415.703C528.468 426.858 528.046 451.023 527.813 469.402C527.468 496.651 527.133 504.197 526 510.288C525.236 514.396 524.622 518.917 524.635 520.335C524.649 521.752 524.414 522.514 524.113 522.029C523.798 521.518 523.345 522.089 523.041 523.383C522.35 526.317 517.802 537.933 516.869 539.148C516.468 539.671 516.403 540.521 516.723 541.039C517.085 541.622 516.973 541.775 516.431 541.441C515.919 541.124 515.007 541.97 514.231 543.482C513.502 544.902 512.252 546.9 511.454 547.925C510.655 548.949 510.229 550.153 510.506 550.601C510.784 551.049 510.658 551.199 510.227 550.933C509.308 550.365 505.653 554.956 505.651 556.678C505.65 557.326 505.443 557.68 505.191 557.464C504.511 556.882 495.004 566.226 495.485 567.003C495.711 567.368 495.288 567.434 494.546 567.15C493.557 566.77 493.367 566.911 493.839 567.673C494.242 568.325 494.177 568.526 493.664 568.209C492.644 567.579 490.891 569.559 491.689 570.439C492.01 570.793 491.822 570.823 491.273 570.507C490.689 570.171 489.214 570.778 487.732 571.965C486.333 573.084 484.835 574.274 484.403 574.61C483.97 574.946 479.996 577.468 475.572 580.214C471.148 582.961 467.749 585.566 468.02 586.003C468.291 586.441 468.15 586.575 467.707 586.302C467.264 586.028 464.689 586.876 461.984 588.184C454.152 591.974 455.633 590.284 464.097 585.771C494.328 569.653 513.32 549.791 521.239 526.013C526.263 510.925 527.034 498.562 527.204 430.25C527.322 382.908 526.971 375.496 524.056 363.649C517.292 336.164 502.578 318.745 473.294 303.551C463.586 298.515 458.69 294.089 457.288 289.085C456.293 285.535 456.317 285.432 459.058 281.715C460.586 279.642 467.091 272.815 473.513 266.545L485.19 255.144L492.07 255.398C506.203 255.92 519.017 250.509 529.196 239.719C537.554 230.859 541.868 221.285 542.714 209.719C544.434 186.231 528.561 166.132 505.151 162.153C498.315 160.991 497.128 160.988 491.388 162.118C469.131 166.498 453.106 185.291 451.929 208.394C451.574 215.365 452.873 223.721 455.228 229.607C455.804 231.043 453.099 234.272 434.104 254.829C421.099 268.903 414.18 277.753 412.858 282.003C412.568 282.937 411.813 284.13 411.18 284.654C410.222 285.449 410.03 285.265 410.03 283.545C410.03 282.316 410.427 281.563 411.014 281.68C411.564 281.79 411.896 281.27 411.767 280.501C411.63 279.685 412.03 279.125 412.75 279.125C413.566 279.125 413.965 278.377 413.965 276.85C413.965 275.489 414.472 274.381 415.228 274.092C415.948 273.815 416.297 273.105 416.039 272.435C415.791 271.79 416.02 271.257 416.548 271.251C417.154 271.243 417.073 270.958 416.326 270.476C415.617 270.018 415.52 269.709 416.083 269.702C416.599 269.695 417.253 270.065 417.536 270.523C418.197 271.591 420.301 268.843 419.672 267.733C419.425 267.296 419.511 267.199 419.863 267.517C420.215 267.837 421.555 266.999 422.838 265.657C424.576 263.84 424.915 263.057 424.166 262.595C423.612 262.253 422.596 262.15 421.907 262.367C420.875 262.692 420.851 262.623 421.769 261.971C422.381 261.537 423.594 261.318 424.465 261.486C426.122 261.804 428.361 260.476 427.772 259.523C427.584 259.219 428.473 258.355 429.748 257.603C431.023 256.85 432.067 255.892 432.067 255.473C432.067 255.054 433.653 253.245 435.592 251.452C438.196 249.045 438.905 247.935 438.302 247.209C437.685 246.466 437.859 246.323 439.013 246.625C440.599 247.039 443.398 244.099 442.617 242.837C442.397 242.48 442.827 242.423 443.574 242.709C444.626 243.112 444.815 242.924 444.411 241.873C444.124 241.127 444.187 240.699 444.549 240.923C445.295 241.384 448.646 237.838 448.137 237.127C447.956 236.874 448.037 236.838 448.318 237.047C448.6 237.256 449.692 236.499 450.745 235.365C452.245 233.746 452.432 233.158 451.61 232.637C450.745 232.09 450.751 231.971 451.641 231.961C452.552 231.951 452.554 231.733 451.655 230.573C450.682 229.318 450.734 229.321 452.249 230.607C453.509 231.677 453.999 231.772 454.283 231C454.835 229.503 454.098 227.928 453.127 228.527C452.615 228.843 452.517 228.673 452.875 228.095C453.61 226.906 452.718 223.091 451.832 223.637C451.475 223.858 451.359 223.118 451.573 221.994C451.838 220.613 451.545 219.715 450.673 219.226C449.962 218.829 449.386 218.079 449.393 217.56C449.401 216.927 449.629 216.971 450.089 217.696C450.507 218.355 450.774 216.056 450.774 211.799C450.774 204.75 451.673 197.801 452.824 195.939C453.181 195.362 452.999 194.369 452.4 193.629C451.821 192.917 451.751 192.575 452.243 192.869C453.521 193.634 455.151 191.361 454.663 189.494C454.402 188.497 454.636 187.918 455.304 187.918C455.884 187.918 456.585 187.203 456.862 186.33C457.14 185.456 458.58 183.153 460.064 181.212C461.546 179.271 462.76 177.461 462.76 177.19C462.76 176.919 463.623 175.898 464.679 174.921C465.734 173.944 466.354 172.896 466.056 172.594C465.758 172.291 466.223 172.165 467.088 172.314C468.169 172.501 468.632 172.174 468.563 171.272C468.503 170.459 468.877 170.116 469.547 170.373C470.143 170.601 470.63 170.397 470.63 169.918C470.63 169.439 471.161 169.048 471.81 169.048C472.46 169.048 472.991 168.694 472.991 168.261C472.991 167.829 473.433 167.564 473.975 167.672C474.515 167.78 474.874 167.439 474.771 166.914C474.655 166.325 475.082 166.15 475.884 166.458C476.832 166.821 477.008 166.671 476.532 165.902C476.059 165.137 476.232 164.983 477.165 165.341C478.685 165.924 479.747 164.676 478.308 163.999C477.764 163.743 478.241 163.707 479.367 163.918C481.831 164.379 482.74 163.679 481.545 162.24C480.946 161.52 480.933 161.185 481.506 161.185C481.965 161.185 482.561 161.539 482.829 161.971C483.096 162.404 483.846 162.757 484.495 162.757C485.145 162.757 485.493 162.463 485.271 162.102C484.798 161.339 484.382 161.39 495.027 160.914C499.572 160.71 504.53 160.698 506.045 160.888ZM475.222 163.447C476.026 163.956 475.901 164.209 474.69 164.525C473.565 164.819 473.229 164.624 473.528 163.848C474.017 162.574 473.891 162.604 475.222 163.447ZM533.197 170.62C532.929 171.053 532.356 171.406 531.924 171.406C531.491 171.406 531.355 171.053 531.623 170.62C531.891 170.188 532.463 169.834 532.896 169.834C533.329 169.834 533.465 170.188 533.197 170.62ZM545.396 191.063C545.396 191.495 545.041 191.849 544.609 191.849C544.176 191.849 543.822 191.495 543.822 191.063C543.822 190.631 544.176 190.277 544.609 190.277C545.041 190.277 545.396 190.631 545.396 191.063ZM546 197.353C546 198.867 545.838 199.486 545.64 198.729C545.442 197.972 545.442 196.734 545.64 195.977C545.838 195.22 546 195.84 546 197.353ZM450.168 203.597C450.168 204.004 449.818 204.553 449.389 204.817C448.944 205.092 448.812 204.777 449.08 204.077C449.603 202.716 450.168 202.466 450.168 203.597ZM442.298 206.299C442.298 206.462 441.678 207.082 440.92 207.675C439.672 208.653 439.645 208.625 440.623 207.378C441.652 206.068 442.298 205.652 442.298 206.299ZM447.442 214.409C446.803 218.43 446.308 218.597 446.481 214.733C446.561 212.961 446.914 211.509 447.265 211.508C447.616 211.507 447.696 212.812 447.442 214.409ZM544.952 214.881C544.656 215.657 544.216 216.093 543.973 215.851C543.731 215.61 543.973 214.975 544.511 214.441C545.289 213.671 545.378 213.761 544.952 214.881ZM440.724 216.224C440.26 217.089 439.705 217.796 439.488 217.796C439.272 217.796 439.473 217.089 439.937 216.224C440.4 215.359 440.956 214.651 441.172 214.651C441.389 214.651 441.187 215.359 440.724 216.224ZM292.08 221.531C293.058 222.778 293.031 222.805 291.783 221.828C290.472 220.8 290.055 220.155 290.703 220.155C290.866 220.155 291.486 220.775 292.08 221.531ZM447.807 226.491C447.807 226.949 447.453 227.106 447.02 226.838C446.587 226.571 446.233 226.197 446.233 226.006C446.233 225.815 446.587 225.659 447.02 225.659C447.453 225.659 447.807 226.034 447.807 226.491ZM540.674 235.094C540.674 235.526 540.319 235.88 539.887 235.88C539.454 235.88 539.1 235.526 539.1 235.094C539.1 234.662 539.454 234.308 539.887 234.308C540.319 234.308 540.674 234.662 540.674 235.094ZM447.807 235.094C447.807 235.526 447.431 235.88 446.973 235.88C446.515 235.88 446.359 235.526 446.626 235.094C446.894 234.662 447.268 234.308 447.46 234.308C447.651 234.308 447.807 234.662 447.807 235.094ZM435.215 249.509C435.215 250.086 434.689 250.558 434.047 250.558C433.162 250.558 433.091 250.303 433.749 249.509C434.229 248.932 434.754 248.461 434.917 248.461C435.081 248.461 435.215 248.932 435.215 249.509ZM429.706 255.583C429.706 256.041 429.351 256.197 428.919 255.93C428.486 255.663 428.132 255.289 428.132 255.097C428.132 254.906 428.486 254.751 428.919 254.751C429.351 254.751 429.706 255.126 429.706 255.583ZM511.161 257.11C511.428 257.542 511.272 257.896 510.814 257.896C510.356 257.896 509.98 257.542 509.98 257.11C509.98 256.677 510.136 256.323 510.327 256.323C510.519 256.323 510.893 256.677 511.161 257.11ZM499.896 257.647C499.329 257.874 498.65 257.845 498.388 257.584C498.127 257.323 498.592 257.138 499.421 257.172C500.338 257.209 500.524 257.396 499.896 257.647ZM501.061 260.613C501.061 261.243 500.76 261.572 500.392 261.345C500.025 261.118 499.927 260.603 500.177 260.2C500.812 259.172 501.061 259.287 501.061 260.613ZM498.113 260.713C498.075 261.629 497.889 261.815 497.638 261.189C497.41 260.621 497.439 259.942 497.7 259.681C497.961 259.42 498.147 259.884 498.113 260.713ZM420.655 264.186C420.387 264.618 420.013 264.972 419.822 264.972C419.63 264.972 419.475 264.618 419.475 264.186C419.475 263.753 419.85 263.4 420.308 263.4C420.766 263.4 420.923 263.753 420.655 264.186ZM146.777 279.125C147.044 279.557 146.888 279.911 146.43 279.911C145.972 279.911 145.596 279.557 145.596 279.125C145.596 278.693 145.752 278.339 145.943 278.339C146.135 278.339 146.509 278.693 146.777 279.125ZM409.637 279.911C409.369 280.344 408.995 280.698 408.804 280.698C408.612 280.698 408.456 280.344 408.456 279.911C408.456 279.479 408.832 279.125 409.29 279.125C409.748 279.125 409.905 279.479 409.637 279.911ZM367.059 280.569C367.259 280.893 366.74 281.209 365.904 281.272C364.096 281.408 363.937 281.037 365.539 280.423C366.174 280.179 366.858 280.245 367.059 280.569ZM374.762 281.235C374.195 281.462 373.516 281.434 373.254 281.172C372.993 280.911 373.457 280.726 374.287 280.76C375.204 280.797 375.39 280.984 374.762 281.235ZM266.155 282.021C265.588 282.248 264.909 282.22 264.647 281.959C264.386 281.698 264.851 281.512 265.68 281.546C266.597 281.584 266.783 281.77 266.155 282.021ZM180.225 282.327C180.225 282.728 178.926 283.056 177.339 283.056C173.954 283.056 174.208 282.359 177.756 281.911C179.114 281.739 180.225 281.927 180.225 282.327ZM143.225 282.247C144.153 282.833 144.041 282.96 142.69 282.858C141.751 282.787 141.157 282.449 141.368 282.107C141.84 281.345 141.791 281.342 143.225 282.247ZM127.889 282.27C128.156 282.703 127.802 283.056 127.102 283.056C126.401 283.056 126.047 282.703 126.315 282.27C126.582 281.838 126.936 281.484 127.102 281.484C127.267 281.484 127.621 281.838 127.889 282.27ZM194.179 282.815C193.413 283.015 192.351 283.001 191.818 282.786C191.285 282.57 191.912 282.408 193.21 282.423C194.509 282.439 194.945 282.615 194.179 282.815ZM183.569 282.791C183.028 283.009 182.142 283.009 181.602 282.791C181.06 282.573 181.503 282.394 182.586 282.394C183.668 282.394 184.11 282.573 183.569 282.791ZM170.977 282.791C170.436 283.009 169.55 283.009 169.01 282.791C168.468 282.573 168.911 282.394 169.993 282.394C171.076 282.394 171.518 282.573 170.977 282.791ZM166.993 282.807C166.425 283.034 165.746 283.006 165.485 282.745C165.223 282.484 165.688 282.298 166.517 282.332C167.434 282.37 167.621 282.556 166.993 282.807ZM163.098 282.826C162.119 283.014 160.702 283.007 159.95 282.81C159.197 282.614 159.998 282.46 161.73 282.468C163.461 282.477 164.077 282.638 163.098 282.826ZM147.746 282.815C146.98 283.015 145.917 283.001 145.385 282.786C144.852 282.57 145.478 282.408 146.777 282.423C148.075 282.439 148.511 282.615 147.746 282.815ZM133.151 282.807C132.584 283.034 131.905 283.006 131.643 282.745C131.382 282.484 131.846 282.298 132.676 282.332C133.593 282.37 133.779 282.556 133.151 282.807ZM408.871 283.877C409.127 284.291 408.607 284.629 407.716 284.629C405.815 284.629 405.624 284.192 407.251 283.568C407.886 283.324 408.615 283.464 408.871 283.877ZM394.684 283.886C407.902 285.177 426.101 290.278 437.13 295.784C455.328 304.87 470.012 320.045 479.272 339.337C482.633 346.338 483.165 347.995 481.262 345.518C480.231 344.178 480.233 344.417 481.277 347.476C483.066 352.72 484.668 359.223 485.359 364.049C485.699 366.424 485.909 391.011 485.825 418.688C485.651 477.224 485.013 504.71 483.649 512.647C482.862 517.218 481.661 523.945 481.321 525.689C480.475 530.021 474.694 545.936 472.92 548.815C472.521 549.464 471.952 550.525 471.656 551.174C470.946 552.734 465.779 560.893 465.184 561.395C464.928 561.611 463.792 563.031 462.66 564.551C458.689 569.882 447.351 580.855 440.977 585.537C433.598 590.956 420.313 597.742 413.723 599.457C411.249 600.101 408.916 600.818 408.539 601.051C408.161 601.283 406.483 601.691 404.81 601.955C403.136 602.22 398.934 602.925 395.471 603.523C390.496 604.383 381.989 604.526 354.94 604.207C336.111 603.986 316.101 603.657 310.474 603.478C291.522 602.874 261.798 602.14 244.366 601.846C145.589 600.18 111.723 599.401 107.82 598.704C106.738 598.512 103.55 598.151 100.737 597.903C97.9233 597.655 94.7052 597.104 93.5845 596.679C92.4646 596.254 91.2251 595.982 90.83 596.075C90.4357 596.169 89.0899 595.824 87.841 595.31C86.5912 594.797 84.9975 594.262 84.2994 594.122C82.9521 593.853 81.7723 593.417 76.7331 591.329C75.0017 590.612 71.9914 589.528 70.0436 588.921C57.6585 585.059 41.2171 569.701 31.577 552.987C27.0974 545.22 21.7072 531.058 19.8152 522.082C16.779 507.68 16.3831 495.957 16.7231 430.482C17.0001 377.029 17.2236 367.489 18.3286 362.076C19.9254 354.251 22.9113 345.027 25.9515 338.531C28.7501 332.55 36.6375 320.722 40.4931 316.722C43.2594 313.853 44.1282 312.321 42.3763 313.402C41.8089 313.753 41.6822 313.618 42.0379 313.043C42.3512 312.537 42.9446 312.331 43.357 312.585C43.7694 312.84 45.9588 311.375 48.2214 309.33C62.748 296.196 83.8587 288.118 110.574 285.469C124.379 284.101 382.17 282.664 394.684 283.886ZM103.885 283.759C103.885 284.472 102.028 285.415 100.626 285.415C100.203 285.415 100.076 285.061 100.343 284.629C100.611 284.196 100.395 283.843 99.8649 283.843C99.3344 283.843 99.1282 283.615 99.406 283.337C99.6846 283.06 100.452 283.28 101.111 283.827C101.932 284.507 102.311 284.542 102.311 283.939C102.311 283.453 102.665 283.056 103.098 283.056C103.531 283.056 103.885 283.372 103.885 283.759ZM111.165 284.363C110.623 284.582 109.738 284.582 109.197 284.363C108.656 284.145 109.099 283.967 110.181 283.967C111.263 283.967 111.705 284.145 111.165 284.363ZM107.23 284.363C106.688 284.582 105.803 284.582 105.262 284.363C104.721 284.145 105.164 283.967 106.246 283.967C107.328 283.967 107.77 284.145 107.23 284.363ZM94.0473 286.6C91.4502 287.208 88.4399 287.691 87.3577 287.672L85.3902 287.639L87.3955 287.03C88.4989 286.696 91.5092 286.214 94.085 285.958L98.7693 285.495L94.0473 286.6ZM77.9136 287.285C77.9136 287.448 77.2935 288.067 76.5364 288.661C75.2882 289.638 75.2607 289.611 76.2389 288.364C77.2675 287.054 77.9136 286.638 77.9136 287.285ZM84.6032 288.56C84.3356 288.993 83.3408 289.341 82.3925 289.335C80.9908 289.324 80.8893 289.18 81.8487 288.56C83.3991 287.559 85.2226 287.559 84.6032 288.56ZM77.5201 290.862C75.7887 291.694 73.8409 292.387 73.1916 292.403C71.8427 292.434 75.8706 290.578 78.7518 289.84C79.8056 289.571 79.2516 290.031 77.5201 290.862ZM71.6176 292.889C71.6176 293.441 67.0813 295.637 65.9511 295.632C65.3884 295.629 65.8134 295.168 66.8956 294.607C69.5942 293.208 71.6176 292.471 71.6176 292.889ZM62.1735 293.781C62.1735 294.49 62.7937 295.571 63.5508 296.183C64.7935 297.187 64.7557 297.212 63.1573 296.439C61.6706 295.719 60.5444 292.492 61.78 292.492C61.9964 292.492 62.1735 293.072 62.1735 293.781ZM66.2557 293.815C65.6883 294.042 65.0091 294.014 64.7478 293.753C64.4865 293.492 64.9509 293.306 65.7804 293.34C66.6972 293.378 66.8838 293.564 66.2557 293.815ZM58.632 300.044C55.5091 302.448 53.8572 302.982 56.1151 300.857C57.3271 299.716 58.7437 298.793 59.2632 298.807C59.7818 298.82 59.4977 299.377 58.632 300.044ZM380.911 315.341C413.532 319.241 437.093 335.975 448.402 363.275C451.499 370.75 453.771 381.911 454.957 395.468C456.354 411.434 455.442 499.924 453.765 511.026C451.255 527.648 447.187 537.559 438.374 548.525C428.985 560.204 411.915 570.039 394.757 573.652C381.394 576.466 347.45 576.617 234.528 574.365C222.624 574.128 194.823 573.593 172.748 573.177C130.368 572.378 122.76 572.073 111.361 570.713C90.941 568.279 74.4367 559.415 62.1468 544.282C53.0734 533.109 46.6758 519.903 44.0834 506.993C42.2772 497.999 42.1214 491.334 42.1237 423.405L42.1261 367.58L44.2408 359.887C49.062 342.354 60.5987 328.893 76.4553 322.301C79.638 320.977 86.3149 319.011 91.2928 317.931C99.3124 316.192 102.988 315.907 123.56 315.434C159.112 314.616 374.2 314.539 380.911 315.341ZM39.4212 315.948C38.9962 316.74 38.0313 317.89 37.275 318.503C36.425 319.193 36.6155 318.644 37.774 317.062C39.8406 314.241 40.6158 313.717 39.4212 315.948ZM31.4173 326.301C30.2698 328.708 29.9062 329.154 29.9062 328.155C29.9062 327.733 30.4571 326.701 31.13 325.862C32.2846 324.423 32.3003 324.448 31.4173 326.301ZM25.9437 335.39C25.8933 336.708 23.6661 340.119 23.6629 338.881C23.6614 338.233 24.18 337.015 24.8159 336.176C25.451 335.336 25.9586 334.982 25.9437 335.39ZM21.2492 346.79C21.2492 347.248 20.895 347.405 20.4622 347.137C20.0293 346.87 19.6752 346.496 19.6752 346.305C19.6752 346.113 20.0293 345.958 20.4622 345.958C20.895 345.958 21.2492 346.333 21.2492 346.79ZM19.3068 352.248C18.9794 353.761 18.4089 356.238 18.039 357.752C17.4401 360.201 17.4117 360.115 17.7832 356.966C18.46 351.217 18.5631 350.736 19.2478 350.101C19.6067 349.769 19.6334 350.734 19.3068 352.248ZM532.793 356.943C533.713 357.524 533.587 357.654 532.203 357.55C531.235 357.477 530.442 357.139 530.442 356.798C530.442 355.978 531.355 356.034 532.793 356.943ZM346.747 365.995C358.548 368.56 371.721 376.028 379.95 384.817C385.521 390.767 390.964 401.218 393.495 410.825C395.351 417.872 395.737 430.094 394.314 436.772C393.853 438.934 393.352 441.411 393.201 442.276C391.13 454.151 382.238 470.401 372.571 479.979C368.007 484.501 358.064 490.997 352.972 492.784C348.19 494.463 339.509 496.844 336.63 497.267C327.229 498.649 313.169 497.269 304.905 494.154C301.908 493.024 298.836 491.906 298.079 491.667C297.322 491.429 296.701 490.901 296.701 490.493C296.701 490.085 296.38 489.95 295.987 490.193C294.99 490.809 288.509 485.529 283.149 479.734C265.826 461.005 260.513 431.839 269.964 407.354C278.063 386.374 296.85 370.779 319.688 366.077C326.956 364.581 340.058 364.541 346.747 365.995ZM161.32 367.198C178.372 371.781 193.84 383.375 200.854 396.83C208.363 411.236 210.588 424.313 207.517 435.985C207.289 436.85 206.595 439.691 205.973 442.298C205.351 444.904 204.262 448.16 203.551 449.531C202.842 450.903 202.261 452.565 202.261 453.225C202.261 455.094 195.495 467.557 192.267 471.633C188.154 476.827 179.732 484.857 176.803 486.375C166.935 491.492 164.146 492.675 158.441 494.166C148.039 496.885 133.495 496.661 123.56 493.629C122.045 493.167 118.149 491.514 114.903 489.957C111.657 488.4 108.714 487.214 108.365 487.322C107.12 487.703 100.389 481.499 95.7464 475.692C90.6592 469.33 84.5513 457.311 82.1596 448.959C81.0113 444.947 80.7075 441.311 80.7477 432.054C80.7941 421.557 81.0349 419.482 82.9442 413.184C89.4937 391.577 104.591 375.874 125.676 368.734C132.715 366.351 134.372 366.098 144.416 365.868C153.539 365.659 156.447 365.888 161.32 367.198ZM532.016 369.546C532.48 370.411 532.681 371.118 532.465 371.118C532.249 371.118 531.693 370.411 531.229 369.546C530.766 368.681 530.564 367.973 530.781 367.973C530.997 367.973 531.553 368.681 532.016 369.546ZM530.786 372.135C530.49 372.91 530.05 373.347 529.807 373.104C529.565 372.863 529.807 372.229 530.345 371.695C531.122 370.924 531.212 371.015 530.786 372.135ZM532.301 384.878C532.55 385.527 532.411 386.057 531.992 386.057C531.573 386.057 531.229 385.527 531.229 384.878C531.229 384.229 531.369 383.699 531.539 383.699C531.709 383.699 532.052 384.229 532.301 384.878ZM532.41 389.203C532.678 389.635 532.521 389.989 532.063 389.989C531.605 389.989 531.229 389.635 531.229 389.203C531.229 388.77 531.385 388.416 531.577 388.416C531.768 388.416 532.142 388.77 532.41 389.203ZM532.228 394.643C532.571 395.951 532.468 396.258 531.884 395.675C531.426 395.217 531.207 394.38 531.396 393.812C531.593 393.223 531.95 393.58 532.228 394.643ZM335.001 396.561C349.536 400.262 361.478 413.462 363.79 428.381C366.241 444.198 357.775 460.936 343.922 467.663C324.046 477.315 301.241 467.293 292.676 445.142C291.321 441.639 290.933 438.848 290.832 431.904C290.754 426.479 290.993 423.283 291.457 423.569C291.905 423.845 292.008 423.231 291.712 422.054C291.366 420.677 291.946 418.611 293.619 415.267C296.304 409.899 303.937 401.298 305.281 402.128C305.756 402.421 306.146 402.299 306.146 401.857C306.146 401.414 306.896 400.651 307.815 400.159C309.034 399.507 309.337 399.505 308.938 400.15C308.637 400.635 309.994 400.254 311.952 399.304C313.91 398.353 315.363 397.336 315.181 397.042C314.999 396.748 315.814 396.495 316.991 396.482C318.168 396.468 321.787 396.247 325.034 395.991C328.828 395.692 332.388 395.896 335.001 396.561ZM152.697 397.229C175.629 405.277 186.139 430.931 174.933 451.502C171.821 457.214 163.251 464.931 157.673 467.045C148.438 470.543 137.902 469.901 128.402 465.261C115.078 458.752 107.453 446.275 107.748 431.464C107.932 422.269 108.097 420.653 108.856 420.653C109.211 420.653 109.261 419.902 108.969 418.982C108.579 417.753 108.701 417.474 109.431 417.924C110.064 418.316 110.227 418.22 109.881 417.659C109.045 416.308 112.839 409.583 116.213 406.434C120.675 402.269 123.656 400.176 124.44 400.661C124.822 400.897 125.134 400.655 125.134 400.125C125.134 399.595 125.339 399.366 125.588 399.616C125.838 399.866 127.97 399.219 130.325 398.178C136.867 395.287 146.055 394.897 152.697 397.229ZM14.891 399.096C14.8532 400.012 14.6667 400.198 14.4156 399.572C14.1882 399.004 14.2165 398.326 14.4778 398.065C14.739 397.803 14.9248 398.267 14.891 399.096ZM531.954 403.027C531.917 403.943 531.73 404.13 531.479 403.503C531.251 402.935 531.28 402.257 531.541 401.996C531.802 401.735 531.988 402.199 531.954 403.027ZM531.892 410.432C531.892 411.513 531.713 411.956 531.495 411.415C531.277 410.874 531.277 409.99 531.495 409.449C531.713 408.909 531.892 409.351 531.892 410.432ZM532.228 414.3C532.571 415.608 532.468 415.915 531.884 415.332C531.426 414.874 531.207 414.037 531.396 413.469C531.593 412.88 531.95 413.237 532.228 414.3ZM316.501 413.884C319.072 415.165 320.327 418.017 319.437 420.555C318.668 422.749 314.334 426.157 312.313 426.157C307.539 426.157 303.478 421.804 305.22 418.554C307.357 414.564 313.096 412.189 316.501 413.884ZM138.338 414.015C141.06 415.919 140.726 420.159 137.632 422.983C133.446 426.802 129.334 426.538 127.146 422.311C124.003 416.239 132.508 409.935 138.338 414.015ZM14.891 419.539C14.8532 420.455 14.6667 420.641 14.4156 420.015C14.1882 419.447 14.2165 418.769 14.4778 418.507C14.739 418.246 14.9248 418.71 14.891 419.539ZM532.803 426.064C532.803 426.497 532.449 427.069 532.016 427.336C531.584 427.604 531.229 427.469 531.229 427.036C531.229 426.604 531.584 426.031 532.016 425.764C532.449 425.497 532.803 425.632 532.803 426.064ZM14.9531 427.336C14.9531 428.418 14.817 429.302 14.6517 429.302C14.4856 429.302 14.1803 428.418 13.9733 427.336C13.7663 426.255 13.9024 425.371 14.2755 425.371C14.6477 425.371 14.9531 426.255 14.9531 427.336ZM532.301 439.131C532.052 439.779 531.709 440.31 531.539 440.31C531.369 440.31 531.229 439.779 531.229 439.131C531.229 438.482 531.573 437.951 531.992 437.951C532.411 437.951 532.55 438.482 532.301 439.131ZM531.954 442.341C531.917 443.257 531.73 443.443 531.479 442.817C531.251 442.249 531.28 441.57 531.541 441.309C531.802 441.048 531.988 441.512 531.954 442.341ZM532.803 446.207C532.803 446.856 532.508 447.386 532.148 447.386C531.787 447.386 531.492 446.856 531.492 446.207C531.492 445.558 531.787 445.028 532.148 445.028C532.508 445.028 532.803 445.558 532.803 446.207ZM529.593 449.417C529.555 450.333 529.369 450.52 529.118 449.893C528.89 449.325 528.919 448.647 529.18 448.386C529.441 448.125 529.627 448.589 529.593 449.417ZM532.36 450.301C532.786 451.421 532.696 451.512 531.919 450.741C531.381 450.207 531.139 449.573 531.381 449.332C531.624 449.089 532.064 449.526 532.36 450.301ZM530.38 495.021C530.343 495.937 530.156 496.123 529.905 495.496C529.677 494.929 529.706 494.25 529.967 493.989C530.228 493.728 530.414 494.192 530.38 495.021ZM218.394 517.9C227.928 519.411 253.39 519.586 267.976 518.242C277.317 517.38 280.495 517.35 283.205 518.096C285.088 518.615 286.429 519.24 286.184 519.485C285.939 519.729 286.124 520.649 286.596 521.529C287.066 522.408 287.426 524.75 287.394 526.733C287.343 529.969 286.991 530.639 283.953 533.284C282.091 534.904 280.237 536.231 279.831 536.232C279.427 536.234 278.364 536.912 277.47 537.739C276.577 538.566 274.606 539.451 273.091 539.705C271.576 539.96 269.097 540.462 267.582 540.822C260.326 542.543 222.758 542.407 213.279 540.625C212.197 540.421 209.186 540.057 206.589 539.816C196.855 538.911 194.861 538.592 194.085 537.817C192.732 536.464 191.774 536.94 192.917 538.397C193.883 539.627 193.859 539.665 192.692 538.754C190.587 537.11 188.882 532.725 188.882 528.959C188.882 524.4 191.376 520.652 195.941 518.347C200.098 516.249 207.101 516.109 218.394 517.9ZM18.2302 520.447C18.3915 522.138 18.2924 523.379 18.0098 523.205C17.2425 522.731 16.7003 518.136 17.3629 517.727C17.6785 517.532 18.0689 518.757 18.2302 520.447ZM525.72 525.227C525.72 525.659 525.366 526.013 524.933 526.013C524.501 526.013 524.146 525.659 524.146 525.227C524.146 524.794 524.501 524.441 524.933 524.441C525.366 524.441 525.72 524.794 525.72 525.227ZM19.6752 526.799C19.6752 528.267 19.465 528.476 18.7307 527.743C17.9965 527.009 17.9965 526.589 18.7307 525.856C19.465 525.122 19.6752 525.331 19.6752 526.799ZM25.9712 544.884C25.9712 545.316 25.5958 545.67 25.1378 545.67C24.6797 545.67 24.5231 545.316 24.7907 544.884C25.0583 544.451 25.4329 544.097 25.6242 544.097C25.8154 544.097 25.9712 544.451 25.9712 544.884ZM27.4831 548.487C27.4453 549.403 27.2588 549.589 27.0077 548.963C26.7803 548.395 26.8086 547.716 27.0699 547.455C27.3312 547.194 27.5169 547.658 27.4831 548.487ZM56.3174 583.061C57.7844 584.235 57.7749 584.25 56.0742 583.426C55.1007 582.955 54.3034 582.404 54.3034 582.204C54.3034 581.602 54.7119 581.776 56.3174 583.061ZM454.543 591.692C453.702 592.326 452.707 592.846 452.332 592.846C451.957 592.846 451.865 593.196 452.13 593.623C452.405 594.069 452.09 594.201 451.389 593.932C449.721 593.292 449.807 593.141 452.65 591.724C455.736 590.186 456.554 590.172 454.543 591.692ZM444.068 596.53C440.93 598.056 438.363 599.796 438.363 600.399C438.363 601.002 437.81 601.495 437.136 601.495C436.461 601.495 436.128 601.141 436.395 600.709C436.663 600.276 436.506 599.922 436.048 599.922C435.59 599.922 435.215 600.276 435.215 600.709C435.215 601.141 434.358 601.495 433.312 601.495C432.267 601.495 429.758 602.202 427.738 603.067C425.719 603.932 423.299 604.62 422.36 604.597C421.422 604.572 424.728 603.029 429.706 601.166C434.683 599.304 440.959 596.846 443.651 595.706C450.584 592.769 450.826 593.246 444.068 596.53ZM439.937 593.97C439.937 594.186 439.228 594.742 438.363 595.205C437.497 595.668 436.789 595.869 436.789 595.653C436.789 595.437 437.497 594.881 438.363 594.418C439.228 593.955 439.937 593.754 439.937 593.97ZM79.8756 596.769C80.1511 597.214 79.8355 597.346 79.1351 597.078C77.772 596.555 77.5225 595.991 78.6542 595.991C79.0619 595.991 79.6112 596.341 79.8756 596.769ZM84.6032 598.35C84.3356 598.782 83.6068 599.136 82.9827 599.136C82.3586 599.136 81.8487 598.782 81.8487 598.35C81.8487 597.917 82.5782 597.563 83.4691 597.563C84.36 597.563 84.8708 597.917 84.6032 598.35ZM96.162 601.246C95.5945 601.473 94.9153 601.444 94.6541 601.183C94.3928 600.922 94.8571 600.737 95.6866 600.771C96.6035 600.808 96.79 600.995 96.162 601.246ZM104.869 602.015C104.327 602.234 103.442 602.234 102.901 602.015C102.36 601.797 102.803 601.619 103.885 601.619C104.967 601.619 105.409 601.797 104.869 602.015ZM123.56 604.664C126.965 605.216 126.911 605.237 122.183 605.203C119.477 605.184 117.264 604.873 117.264 604.511C117.264 603.786 118.3 603.811 123.56 604.664ZM115.409 605.033C114.107 606.333 112.977 606.631 113.685 605.486C113.933 605.086 113.511 604.597 112.748 604.398C111.986 604.199 112.538 603.995 113.975 603.945C116.299 603.864 116.458 603.985 115.409 605.033ZM107.607 605.005C106.999 605.453 106.293 606.35 106.038 606.999C105.776 607.667 105.619 607.313 105.675 606.184C105.744 604.798 106.221 604.191 107.244 604.191C108.444 604.191 108.51 604.339 107.607 605.005ZM420.262 605.411C420.262 605.852 419.14 606.212 417.769 606.212C414.904 606.212 415.007 605.869 418.097 605.129C419.382 604.821 420.262 604.936 420.262 605.411ZM198.326 606.143C198.326 606.942 196.313 606.823 195.463 605.973C195.162 605.672 195.683 605.426 196.62 605.426C197.558 605.426 198.326 605.748 198.326 606.143ZM177.981 606.41C177.385 607.005 176.811 607.048 176.299 606.536C175.787 606.024 176.095 605.716 177.203 605.633C178.47 605.538 178.662 605.729 177.981 606.41ZM414.752 606.989C414.752 607.427 413.1 607.785 411.08 607.785C406.709 607.785 406.824 607.407 411.408 606.705C413.477 606.389 414.752 606.497 414.752 606.989ZM267.582 607.674C267.582 608.337 259.704 608.039 259.015 607.35C258.821 607.157 260.67 606.999 263.122 606.999C265.575 606.999 267.582 607.302 267.582 607.674ZM256.711 607.536C256.144 607.763 255.465 607.735 255.203 607.474C254.942 607.213 255.406 607.027 256.236 607.061C257.153 607.099 257.339 607.285 256.711 607.536ZM252.629 607.3C252.629 607.466 251.92 607.786 251.054 608.013C250.188 608.239 249.677 608.103 249.92 607.712C250.344 607.027 252.629 606.679 252.629 607.3ZM244.169 607.519C243.627 607.738 242.742 607.738 242.201 607.519C241.66 607.301 242.103 607.123 243.185 607.123C244.267 607.123 244.709 607.301 244.169 607.519ZM237.676 607.308C237.676 607.478 237.145 607.82 236.495 608.07C235.846 608.318 235.315 608.179 235.315 607.761C235.315 607.341 235.846 606.999 236.495 606.999C237.145 606.999 237.676 607.138 237.676 607.308ZM233.101 607.536C232.534 607.763 231.854 607.735 231.593 607.474C231.332 607.213 231.796 607.027 232.626 607.061C233.543 607.099 233.729 607.285 233.101 607.536ZM403.734 608.88C403.734 609.644 401.517 609.931 400.515 609.297C399.708 608.786 399.995 608.592 401.57 608.583C402.76 608.577 403.734 608.71 403.734 608.88ZM334.675 609.092C334.133 609.31 333.248 609.31 332.707 609.092C332.166 608.874 332.609 608.695 333.691 608.695C334.773 608.695 335.215 608.874 334.675 609.092ZM328.182 609.333C328.182 609.751 327.651 609.891 327.001 609.642C326.352 609.393 325.821 609.05 325.821 608.88C325.821 608.71 326.352 608.571 327.001 608.571C327.651 608.571 328.182 608.914 328.182 609.333ZM325.034 608.876C325.034 609.042 323.971 609.335 322.673 609.525C321.374 609.715 320.312 609.579 320.312 609.221C320.312 608.864 321.374 608.571 322.673 608.571C323.971 608.571 325.034 608.708 325.034 608.876ZM347.374 612.646C347.147 613.014 346.632 613.111 346.229 612.862C345.199 612.227 345.315 611.978 346.642 611.978C347.272 611.978 347.602 612.279 347.374 612.646Z" fill="white"/>
</svg>
