<svg width="931" height="371" viewBox="0 0 931 371" fill="none" xmlns="http://www.w3.org/2000/svg">
<line x1="1.5" y1="125" x2="1.5" y2="313" stroke="white"/>
<path d="M1 125C1 125 110.332 157.319 104.797 214.66C99.2608 272 1 321 1 321" stroke="white"/>
<line x1="110.476" y1="228.847" x2="145.476" y2="337.847" stroke="white"/>
<path d="M107.75 257.567C107.75 257.567 124.846 234.526 140 225C157.538 213.976 170.043 210.173 190.75 209.567" stroke="white"/>
<line x1="224.447" y1="214.776" x2="254.447" y2="274.776" stroke="white"/>
<line x1="274.484" y1="197.124" x2="254.484" y2="275.124" stroke="white"/>
<line x1="254.5" y1="272" x2="254.5" y2="338" stroke="white"/>
<line x1="480.5" y1="87" x2="480.5" y2="371" stroke="white"/>
<line x1="584.179" y1="159.467" x2="480.179" y2="199.467" stroke="white"/>
<line x1="480.214" y1="206.548" x2="624.214" y2="274.548" stroke="white"/>
<line x1="652.5" y1="151" x2="652.5" y2="258" stroke="white"/>
<path d="M716.496 22.9371L647 117L800 194L680 289" stroke="white"/>
<path d="M837.119 7.7057L767.623 101.768L920.623 178.769L800.623 273.769" stroke="white"/>
</svg>
