<svg width="40" height="39" viewBox="0 0 40 39" fill="none" xmlns="http://www.w3.org/2000/svg">
<path d="M20.0002 -0.00634766C8.95583 -0.00634766 0 8.94782 0 19.9938C0 28.8304 5.73066 36.3273 13.6773 38.9719C14.6769 39.1571 15.0438 38.5381 15.0438 38.0098C15.0438 37.5329 15.0253 35.9574 15.0167 34.2862C9.45262 35.496 8.27853 31.9264 8.27853 31.9264C7.36874 29.6147 6.05788 29 6.05788 29C4.24326 27.7587 6.19466 27.7842 6.19466 27.7842C8.20302 27.9253 9.26053 29.8452 9.26053 29.8452C11.0443 32.9028 13.9393 32.0188 15.0806 31.5078C15.2601 30.2151 15.7784 29.3328 16.3504 28.8334C11.9081 28.3277 7.23825 26.6127 7.23825 18.9492C7.23825 16.7657 8.01954 14.9815 9.29894 13.5809C9.09129 13.0772 8.40671 11.043 9.49269 8.28808C9.49269 8.28808 11.1722 7.75056 14.9942 10.3382C16.5895 9.89504 18.3005 9.67281 20.0002 9.66519C21.6999 9.67281 23.4121 9.89504 25.0105 10.3382C28.8278 7.75056 30.505 8.28808 30.505 8.28808C31.5936 11.043 30.9087 13.0772 30.7011 13.5809C31.9834 14.9815 32.7594 16.7657 32.7594 18.9492C32.7594 26.631 28.0806 28.3224 23.6271 28.8175C24.3444 29.4382 24.9836 30.6553 24.9836 32.5212C24.9836 35.1973 24.9605 37.3511 24.9605 38.0098C24.9605 38.542 25.3205 39.1657 26.3343 38.9693C34.2766 36.3217 40 28.8274 40 19.9938C40 8.94782 31.0455 -0.00634766 20.0002 -0.00634766ZM7.49071 28.4843C7.44666 28.5837 7.29034 28.6135 7.14793 28.5452C7.00286 28.48 6.92139 28.3445 6.96842 28.2449C7.01147 28.1425 7.16813 28.114 7.31286 28.1826C7.45826 28.2478 7.54105 28.3846 7.49071 28.4843ZM8.4745 29.3621C8.37911 29.4506 8.19265 29.4095 8.06614 29.2697C7.93531 29.1303 7.91081 28.9438 8.00751 28.8541C8.10588 28.7656 8.28671 28.807 8.41786 28.9465C8.54869 29.0876 8.57419 29.2727 8.4745 29.3621ZM9.14941 30.4853C9.02687 30.5704 8.8265 30.4906 8.70263 30.3127C8.58009 30.1349 8.58009 29.9216 8.70528 29.8361C8.82948 29.7507 9.02687 29.8275 9.15239 30.004C9.2746 30.1849 9.2746 30.3982 9.14941 30.4853ZM10.2908 31.786C10.1812 31.9069 9.94772 31.8745 9.77682 31.7095C9.60195 31.5482 9.55327 31.3194 9.66322 31.1985C9.77417 31.0773 10.009 31.1114 10.1812 31.275C10.3548 31.436 10.4077 31.6665 10.2908 31.786ZM11.766 32.2251C11.7177 32.3818 11.4928 32.453 11.2662 32.3864C11.04 32.3179 10.892 32.1344 10.9377 31.9761C10.9847 31.8184 11.2106 31.7442 11.4388 31.8155C11.6647 31.8837 11.813 32.0658 11.766 32.2251ZM13.4448 32.4114C13.4505 32.5763 13.2584 32.7131 13.0206 32.7161C12.7815 32.7214 12.588 32.5879 12.5854 32.4256C12.5854 32.2591 12.7732 32.1236 13.0123 32.1196C13.2501 32.115 13.4448 32.2475 13.4448 32.4114ZM15.0941 32.3482C15.1226 32.5091 14.9573 32.6744 14.7212 32.7185C14.489 32.7609 14.274 32.6615 14.2446 32.5019C14.2158 32.3369 14.384 32.1717 14.6158 32.1289C14.8523 32.0879 15.0639 32.1846 15.0941 32.3482Z" fill="white"/>
</svg>
