<svg width="442" height="292" viewBox="0 0 442 292" fill="none" xmlns="http://www.w3.org/2000/svg">
<path d="M187.546 210.5H15.4541L101.5 79.8174L187.546 210.5Z" stroke="white" stroke-width="2"/>
<rect x="43" y="203" width="131" height="88" stroke="white" stroke-width="2"/>
<rect x="57.5" y="227.5" width="26" height="24" stroke="white"/>
<rect x="134.5" y="227.5" width="26" height="24" stroke="white"/>
<line x1="147.499" y1="226.975" x2="148.499" y2="246.975" stroke="white"/>
<line x1="158.047" y1="238.498" x2="137.047" y2="240.498" stroke="white"/>
<line x1="67.5" y1="234" x2="67.5" y2="247" stroke="white"/>
<line x1="78.0277" y1="240.499" x2="60.0277" y2="241.499" stroke="white"/>
<line x1="96.5" y1="239" x2="96.5" y2="289" stroke="white"/>
<line x1="96.7619" y1="239.56" x2="120.762" y2="226.56" stroke="white"/>
<line x1="121.5" y1="227" x2="121.5" y2="289" stroke="white"/>
<circle cx="203" cy="238" r="5.5" stroke="white"/>
<line x1="202.5" y1="242.98" x2="203.5" y2="267.98" stroke="white"/>
<line x1="203.447" y1="267.224" x2="192.447" y2="289.224" stroke="white"/>
<line x1="204.459" y1="265.801" x2="214.459" y2="288.801" stroke="white"/>
<line x1="190" y1="251.5" x2="219" y2="251.5" stroke="white"/>
<path d="M227.069 264.5C228.007 264.5 228.834 264.769 229.414 265.179C229.995 265.589 230.293 266.111 230.293 266.632C230.293 267.153 229.995 267.673 229.414 268.084C228.834 268.494 228.007 268.763 227.069 268.763C226.132 268.763 225.304 268.494 224.724 268.084C224.143 267.673 223.845 267.153 223.845 266.632C223.845 266.111 224.142 265.589 224.724 265.179C225.304 264.769 226.132 264.5 227.069 264.5Z" stroke="white"/>
<line y1="-0.5" x2="10.9825" y2="-0.5" transform="matrix(0.0565164 0.998402 -0.999601 0.0282538 226.448 268.825)" stroke="white"/>
<line y1="-0.5" x2="11.8204" y2="-0.5" transform="matrix(-0.577611 0.816312 -0.94288 -0.333133 227.069 279.351)" stroke="white"/>
<line y1="-0.5" x2="11.8443" y2="-0.5" transform="matrix(0.52404 0.851693 -0.955903 0.293682 227.69 278.912)" stroke="white"/>
<line x1="219" y1="272.272" x2="237" y2="272.272" stroke="white"/>
<circle cx="256" cy="238" r="5.5" stroke="white"/>
<line x1="255.5" y1="242.98" x2="256.5" y2="267.98" stroke="white"/>
<line x1="256.447" y1="267.224" x2="245.447" y2="289.224" stroke="white"/>
<line x1="255.434" y1="267.752" x2="267.434" y2="288.752" stroke="white"/>
<line x1="245.976" y1="289.501" x2="266.976" y2="288.501" stroke="white"/>
<line x1="255.416" y1="249.277" x2="245.416" y2="264.277" stroke="white"/>
<line x1="256.342" y1="248.635" x2="272.342" y2="263.635" stroke="white"/>
<path d="M352.5 57C378.277 57 399 75.8954 399 99C399 122.105 378.277 141 352.5 141C326.723 141 306 122.105 306 99C306 75.8954 326.723 57 352.5 57Z" stroke="white" stroke-width="2"/>
<line x1="392" y1="92.5" x2="429" y2="92.5" stroke="black"/>
<line x1="380.497" y1="113.947" x2="385.497" y2="160.947" stroke="white"/>
<line x1="381.776" y1="85.5528" x2="441.776" y2="55.5528" stroke="white"/>
<line x1="365.531" y1="70.8259" x2="391.531" y2="0.825911" stroke="white"/>
<line x1="329.022" y1="69.4995" x2="283.022" y2="71.4995" stroke="white"/>
<line x1="333.28" y1="138.414" x2="299.28" y2="161.414" stroke="white"/>
<line x1="353.491" y1="137.904" x2="361.491" y2="178.904" stroke="white"/>
<line x1="343.5" y1="35" x2="343.5" y2="64" stroke="white"/>
<line x1="306.246" y1="96.4353" x2="283.246" y2="109.435" stroke="white"/>
</svg>
