<svg width="41" height="41" viewBox="0 0 41 41" fill="none" xmlns="http://www.w3.org/2000/svg">
<path d="M27.6914 5.91641C29.6237 5.92218 31.4751 6.69231 32.8414 8.05861C34.2077 9.42491 34.9778 11.2764 34.9836 13.2086V27.7914C34.9778 29.7236 34.2077 31.5751 32.8414 32.9414C31.4751 34.3077 29.6237 35.0778 27.6914 35.0836H13.1086C11.1764 35.0778 9.32494 34.3077 7.95864 32.9414C6.59234 31.5751 5.8222 29.7236 5.81643 27.7914V13.2086C5.8222 11.2764 6.59234 9.42491 7.95864 8.05861C9.32494 6.69231 11.1764 5.92218 13.1086 5.91641H27.6914ZM27.6914 3H13.1086C7.49377 3 2.90002 7.59375 2.90002 13.2086V27.7914C2.90002 33.4062 7.49377 38 13.1086 38H27.6914C33.3063 38 37.9 33.4062 37.9 27.7914V13.2086C37.9 7.59375 33.3063 3 27.6914 3Z" fill="white"/>
<path d="M29.8789 13.2086C29.4463 13.2086 29.0234 13.0803 28.6636 12.84C28.3039 12.5996 28.0235 12.258 27.8579 11.8582C27.6924 11.4585 27.6491 11.0187 27.7335 10.5944C27.8179 10.17 28.0262 9.78025 28.3321 9.47432C28.6381 9.1684 29.0278 8.96006 29.4522 8.87565C29.8765 8.79125 30.3163 8.83457 30.7161 9.00013C31.1158 9.1657 31.4574 9.44608 31.6978 9.80581C31.9381 10.1655 32.0664 10.5885 32.0664 11.0211C32.067 11.3086 32.0109 11.5933 31.9012 11.859C31.7915 12.1246 31.6304 12.366 31.4271 12.5693C31.2239 12.7725 30.9825 12.9337 30.7168 13.0434C30.4511 13.1531 30.1664 13.2092 29.8789 13.2086ZM20.4 14.6664C21.5538 14.6664 22.6817 15.0086 23.641 15.6496C24.6003 16.2906 25.348 17.2017 25.7896 18.2676C26.2311 19.3336 26.3466 20.5065 26.1215 21.6381C25.8964 22.7697 25.3408 23.8092 24.525 24.625C23.7092 25.4408 22.6697 25.9964 21.5381 26.2215C20.4065 26.4466 19.2336 26.3311 18.1676 25.8896C17.1017 25.448 16.1906 24.7003 15.5496 23.741C14.9086 22.7817 14.5664 21.6538 14.5664 20.5C14.5681 18.9534 15.1832 17.4705 16.2769 16.3769C17.3705 15.2832 18.8534 14.6681 20.4 14.6664ZM20.4 11.75C18.6694 11.75 16.9777 12.2632 15.5388 13.2247C14.0999 14.1861 12.9783 15.5527 12.3161 17.1515C11.6538 18.7504 11.4805 20.5097 11.8182 22.2071C12.1558 23.9044 12.9891 25.4635 14.2128 26.6872C15.4366 27.9109 16.9957 28.7443 18.693 29.0819C20.3903 29.4195 22.1497 29.2462 23.7485 28.584C25.3474 27.9217 26.7139 26.8002 27.6754 25.3613C28.6369 23.9223 29.15 22.2306 29.15 20.5C29.15 18.1794 28.2282 15.9538 26.5872 14.3128C24.9463 12.6719 22.7207 11.75 20.4 11.75Z" fill="white"/>
</svg>
