<svg width="196" height="75" viewBox="0 0 196 75" fill="none" xmlns="http://www.w3.org/2000/svg">
<path fill-rule="evenodd" clip-rule="evenodd" d="M56.8388 1.06916C64.5511 10.7503 71.5184 20.5017 75.3453 26.9704L76.4062 28.7638L76.6599 38.4897C76.7995 43.8389 76.9556 48.2931 77.007 48.3877C77.132 48.6188 78.2411 48.8926 89.8481 51.5585C95.3315 52.8179 99.8501 53.8618 99.8895 53.8781C99.9289 53.8945 98.777 54.8391 97.3295 55.9771C91.2458 60.7606 75.5147 73.1199 74.4094 73.9845C73.7506 74.4999 73.2723 74.9562 73.3463 74.9987C73.4203 75.0413 75.5149 74.0289 78.0009 72.7489C84.2749 69.5187 87.6692 67.8031 93.9321 64.6967C96.905 63.2222 102.257 60.5249 105.826 58.7025C109.395 56.8803 113.557 54.7745 115.075 54.0232C116.594 53.2719 118.046 52.5439 118.303 52.4057C118.76 52.16 118.673 52.1273 114.493 50.9747C112.14 50.3259 106.849 48.918 102.734 47.846C93.628 45.4735 88.4115 44.0671 88.1549 43.9149C88.0495 43.8523 87.6279 41.8765 87.2185 39.5243C86.2443 33.9276 84.1363 23.6684 82.6362 17.2238C81.9782 14.3969 81.4399 11.9237 81.4399 11.7276C81.4399 11.4249 80.2389 10.8221 73.4568 7.72056C61.5762 2.28717 56.4683 0 56.2144 0C56.0893 0 56.3703 0.48119 56.8388 1.06916ZM60.8769 12.4505C59.9265 13.6717 55.8423 17.3979 47.6077 24.5561C36.6873 34.049 34.0765 36.2824 33.8992 36.2824C33.6741 36.2824 28.338 30.0432 25.7905 26.8009C23.6872 24.1242 20.082 19.2923 19.0862 17.8159C18.7098 17.2576 18.1803 16.7207 17.9096 16.623C16.3723 16.0678 0 13.2182 0 13.5057C0 13.5624 1.956 15.9324 4.34682 18.7722C9.52967 24.9282 15.5608 32.2541 19.0464 36.6273C20.4373 38.3724 22.6494 41.1039 23.9618 42.6973C25.2745 44.2907 27.3537 46.8825 28.5825 48.457C29.8113 50.0315 30.8828 51.3189 30.9637 51.3179C31.148 51.3158 39.9829 43.5917 48.0039 36.4203C51.3559 33.4232 54.8914 30.2725 55.8603 29.4187L57.6219 27.8661L57.9703 28.5909C58.7148 30.1395 60.2903 34.2475 60.1795 34.3506C60.1151 34.4103 58.359 35.034 56.2769 35.7363C54.195 36.4388 51.8921 37.2181 51.1599 37.4684C49.8484 37.9162 49.7982 37.9576 47.8778 40.1723C46.8051 41.4094 44.9548 43.4147 43.7661 44.6287C42.5772 45.8427 41.6826 46.8528 41.7782 46.8734C41.8735 46.8939 43.026 46.5736 44.3388 46.1615C45.6517 45.7495 50.8339 44.1657 55.8548 42.6423L64.9837 39.8724L65.5394 40.9399C66.5897 42.9582 69.2292 47.9421 70.2692 49.871C70.8421 50.9333 71.5933 52.3457 71.9386 53.0095C72.284 53.6735 72.6713 54.2166 72.7991 54.2166C72.9269 54.2166 73.0323 53.8597 73.0331 53.4234C73.0348 52.5712 73.2992 48.3953 73.8737 40.1589L74.2333 34.9992L72.0981 31.1228C69.8317 27.0084 68.5147 24.5572 65.9391 19.6587C65.0613 17.9894 63.8116 15.63 63.162 14.4156C62.5124 13.201 61.9808 12.1302 61.9808 12.0358C61.9808 11.6486 61.3026 11.9034 60.8769 12.4505ZM131.608 20.4576C130.508 21.1626 126.941 23.4813 123.683 25.6105L117.759 29.4817L116.57 32.1578C115.916 33.6296 114.81 36.107 114.112 37.6632L112.844 40.4925L114.961 42.4916C117.201 44.6072 125.353 51.6994 128.305 54.1005C131.282 56.5219 131.829 56.8335 132.298 56.3733C132.484 56.1904 149.786 45.6031 152.167 44.2148L153.35 43.5251L153.295 35.9277C153.264 31.7493 153.15 28.1041 153.042 27.8275C152.933 27.5507 151.193 25.4911 149.174 23.2501L145.504 19.1759H139.557H133.609L131.608 20.4576ZM152.07 19.3037C152.072 19.4969 154.058 29.0396 154.929 33.0404C156.189 38.8324 157.42 46.0102 159.401 59.1141C159.821 61.8901 159.993 62.6319 160.219 62.6319C160.407 62.6319 160.479 62.5094 163.11 57.7345C166.49 51.6011 168.741 46.7429 168.531 46.0332C168.46 45.7918 168.185 44.3528 167.921 42.8353C167.017 37.6462 165.086 27.2554 164.928 26.7289L164.814 26.3496L166.91 26.35C168.063 26.3502 170.69 26.3905 172.748 26.4396L176.49 26.5288L173.14 29.9915C171.298 31.8961 169.301 34.0413 168.701 34.7589L167.612 36.0634L168.037 37.6225C168.434 39.0731 168.524 39.2189 169.335 39.7198C170.114 40.2011 185.999 48.6523 192.434 52.0093C193.816 52.7302 195.096 53.4005 195.278 53.499C195.971 53.8735 195.806 53.5059 194.814 52.4662C194.249 51.8736 191.874 49.402 189.536 46.9739C187.199 44.5459 183.961 41.1626 182.341 39.4554C180.72 37.7482 179.351 36.3071 179.296 36.2529C179.242 36.1986 179.742 35.996 180.407 35.8024C181.849 35.3829 181.865 35.3692 185.766 31.247C189.842 26.94 196.243 19.517 195.993 19.3879C195.839 19.3088 152.069 19.2251 152.07 19.3037ZM85.2872 19.3483C85.3254 19.7235 87.4542 26.6597 87.5618 26.7596C87.6591 26.8501 89.7107 26.9014 93.2256 26.9014H98.7368L98.7373 31.9023C98.7376 34.6528 98.8084 38.6142 98.8949 40.7057L99.0523 44.508L100.636 45.0304C103.758 46.0601 110.456 48.1466 110.64 48.1466C110.743 48.1466 110.754 43.3664 110.664 37.524L110.501 26.9014L113.928 26.8851C115.813 26.8761 117.662 26.8295 118.037 26.7816C118.65 26.7031 119.04 26.3289 121.938 23.0386C123.708 21.0279 125.158 19.3672 125.16 19.3483C125.162 19.3294 116.19 19.3138 105.223 19.3138C94.2564 19.3138 85.2853 19.3294 85.2872 19.3483ZM131.122 29.5515C128.968 30.6183 126.831 31.6785 126.374 31.9075C125.544 32.3233 125.542 32.3273 124.748 35.0964C124.082 37.4218 123.995 37.969 124.209 38.4897C124.57 39.3705 125.619 40.928 125.958 41.0864C126.115 41.1599 128.73 41.8855 131.769 42.6987C134.808 43.512 137.47 44.23 137.683 44.2946C137.989 44.387 138.842 43.9224 141.712 42.098C143.714 40.8255 145.494 39.6638 145.667 39.5165C145.925 39.2963 145.926 38.6941 145.676 36.1444C145.508 34.4372 145.364 32.5438 145.355 31.9368L145.339 30.8331L142.038 29.7115C138.617 28.5497 137.437 28.1851 135.927 27.8239L135.039 27.6117L131.122 29.5515ZM153.77 37.3285C153.781 37.4892 153.838 37.5219 153.915 37.412C153.984 37.3124 153.976 37.1933 153.896 37.1475C153.816 37.1017 153.759 37.1831 153.77 37.3285ZM153.77 41.7431C153.781 41.9038 153.838 41.9365 153.915 41.8265C153.984 41.7269 153.976 41.6079 153.896 41.5621C153.816 41.5163 153.759 41.5977 153.77 41.7431Z" fill="white"/>
</svg>
