<svg width="215" height="170" viewBox="0 0 215 170" fill="none" xmlns="http://www.w3.org/2000/svg">
<path d="M45.1426 1H169.873C181.239 1.00026 189.764 10.8129 189.66 21.6641L189.648 22.1816C189.273 32.9699 189.728 46.9307 193.093 58.6016L193.428 59.7236V59.7246C197.003 71.3061 203.087 79.1074 213.166 80.4736V89.5254C203.411 90.8476 197.398 98.1986 193.78 109.17L193.428 110.275V110.276C189.988 121.422 189.335 134.878 189.587 145.692L189.648 147.818C190.033 158.873 181.419 169 169.873 169H45.1426C33.7767 169 25.2515 159.187 25.3555 148.336L25.3662 147.818C25.7415 137.03 25.2871 123.069 21.9219 111.398L21.5869 110.275C18.0117 98.6926 11.9126 90.8913 1.83301 89.5254V80.4736C11.9121 79.1077 18.0117 71.3074 21.5869 59.7246C25.0276 48.5784 25.6793 35.1222 25.4277 24.3076L25.3662 22.1816C24.9814 11.1268 33.5964 1 45.1426 1Z" stroke="white" stroke-width="2"/>
<rect x="90.4336" y="21.333" width="11.52" height="128" fill="white"/>
<path d="M101.953 34.7727V25.1733C101.953 25.1733 139.073 27.9893 139.073 54.7413C139.073 81.4933 101.953 81.4933 101.953 81.4933V72.5327C101.953 72.5327 127.327 72.7926 128.193 54.7413C129.09 36.0336 101.953 34.7727 101.953 34.7727Z" fill="white"/>
<path d="M101.953 91.0921V81.4927C101.953 81.4927 139.073 84.3087 139.073 111.061C139.073 137.813 101.953 137.813 101.953 137.813V128.852C101.953 128.852 127.327 129.112 128.193 111.061C129.09 92.353 101.953 91.0921 101.953 91.0921Z" fill="white"/>
</svg>
