<svg width="201" height="204" viewBox="0 0 201 204" fill="none" xmlns="http://www.w3.org/2000/svg">
<rect x="2" y="1" width="183" height="42.0741" rx="21.037" stroke="white" stroke-width="2"/>
<mask id="path-2-inside-1_2012_209" fill="white">
<path d="M11 14.5371H53V29.5371H11V14.5371Z"/>
</mask>
<path d="M53 14.5371H52V29.5371H53H54V14.5371H53Z" fill="white" mask="url(#path-2-inside-1_2012_209)"/>
<path d="M20.5833 26.6331C19.9753 26.6331 19.4273 26.4971 18.9393 26.2251C18.4513 25.9451 18.0633 25.5571 17.7753 25.0611C17.4953 24.5651 17.3553 23.9811 17.3553 23.3091C17.3553 22.6291 17.4953 22.0411 17.7753 21.5451C18.0633 21.0491 18.4513 20.6651 18.9393 20.3931C19.4273 20.1211 19.9753 19.9851 20.5833 19.9851C21.1273 19.9851 21.6033 20.1051 22.0113 20.3451C22.4193 20.5851 22.7353 20.9491 22.9593 21.4371C23.1833 21.9251 23.2953 22.5491 23.2953 23.3091C23.2953 24.0611 23.1873 24.6851 22.9713 25.1811C22.7553 25.6691 22.4433 26.0331 22.0353 26.2731C21.6353 26.5131 21.1513 26.6331 20.5833 26.6331ZM20.9073 25.0971C21.2113 25.0971 21.4873 25.0251 21.7353 24.8811C21.9833 24.7371 22.1793 24.5331 22.3233 24.2691C22.4753 23.9971 22.5513 23.6771 22.5513 23.3091C22.5513 22.9331 22.4753 22.6131 22.3233 22.3491C22.1793 22.0851 21.9833 21.8811 21.7353 21.7371C21.4873 21.5931 21.2113 21.5211 20.9073 21.5211C20.5953 21.5211 20.3153 21.5931 20.0673 21.7371C19.8193 21.8811 19.6193 22.0851 19.4673 22.3491C19.3233 22.6131 19.2513 22.9331 19.2513 23.3091C19.2513 23.6771 19.3233 23.9971 19.4673 24.2691C19.6193 24.5331 19.8193 24.7371 20.0673 24.8811C20.3153 25.0251 20.5953 25.0971 20.9073 25.0971ZM22.5993 26.5371V25.2171L22.6353 23.2971L22.5153 21.3891V17.6331H24.3873V26.5371H22.5993ZM30.0799 26.5371V25.2771L29.9599 25.0011V22.7451C29.9599 22.3451 29.8359 22.0331 29.5879 21.8091C29.3479 21.5851 28.9759 21.4731 28.4719 21.4731C28.1279 21.4731 27.7879 21.5291 27.4519 21.6411C27.1239 21.7451 26.8439 21.8891 26.6119 22.0731L25.9399 20.7651C26.2919 20.5171 26.7159 20.3251 27.2119 20.1891C27.7079 20.0531 28.2119 19.9851 28.7239 19.9851C29.7079 19.9851 30.4719 20.2171 31.0159 20.6811C31.5599 21.1451 31.8319 21.8691 31.8319 22.8531V26.5371H30.0799ZM28.1119 26.6331C27.6079 26.6331 27.1759 26.5491 26.8159 26.3811C26.4559 26.2051 26.1799 25.9691 25.9879 25.6731C25.7959 25.3771 25.6999 25.0451 25.6999 24.6771C25.6999 24.2931 25.7919 23.9571 25.9759 23.6691C26.1679 23.3811 26.4679 23.1571 26.8759 22.9971C27.2839 22.8291 27.8159 22.7451 28.4719 22.7451H30.1879V23.8371H28.6759C28.2359 23.8371 27.9319 23.9091 27.7639 24.0531C27.6039 24.1971 27.5239 24.3771 27.5239 24.5931C27.5239 24.8331 27.6159 25.0251 27.7999 25.1691C27.9919 25.3051 28.2519 25.3731 28.5799 25.3731C28.8919 25.3731 29.1719 25.3011 29.4199 25.1571C29.6679 25.0051 29.8479 24.7851 29.9599 24.4971L30.2479 25.3611C30.1119 25.7771 29.8639 26.0931 29.5039 26.3091C29.1439 26.5251 28.6799 26.6331 28.1119 26.6331ZM33.5261 26.5371V20.0811H35.3981V26.5371H33.5261ZM34.4621 19.1811C34.1181 19.1811 33.8381 19.0811 33.6221 18.8811C33.4061 18.6811 33.2981 18.4331 33.2981 18.1371C33.2981 17.8411 33.4061 17.5931 33.6221 17.3931C33.8381 17.1931 34.1181 17.0931 34.4621 17.0931C34.8061 17.0931 35.0861 17.1891 35.3021 17.3811C35.5181 17.5651 35.6261 17.8051 35.6261 18.1011C35.6261 18.4131 35.5181 18.6731 35.3021 18.8811C35.0941 19.0811 34.8141 19.1811 34.4621 19.1811ZM37.1355 26.5371V17.6331H39.0075V26.5371H37.1355ZM41.5609 28.9611C41.2249 28.9611 40.8929 28.9091 40.5649 28.8051C40.2369 28.7011 39.9689 28.5571 39.7609 28.3731L40.4449 27.0411C40.5889 27.1691 40.7529 27.2691 40.9369 27.3411C41.1289 27.4131 41.3169 27.4491 41.5009 27.4491C41.7649 27.4491 41.9729 27.3851 42.1249 27.2571C42.2849 27.1371 42.4289 26.9331 42.5569 26.6451L42.8929 25.8531L43.0369 25.6491L45.3529 20.0811H47.1529L44.2369 26.9331C44.0289 27.4531 43.7889 27.8611 43.5169 28.1571C43.2529 28.4531 42.9569 28.6611 42.6289 28.7811C42.3089 28.9011 41.9529 28.9611 41.5609 28.9611ZM42.6649 26.7891L39.7849 20.0811H41.7169L43.9489 25.4811L42.6649 26.7891Z" fill="white"/>
<mask id="path-5-inside-2_2012_209" fill="white">
<path d="M53 14.5371H114.5V29.5371H53V14.5371Z"/>
</mask>
<path d="M114.5 14.5371H112.5V29.5371H114.5H116.5V14.5371H114.5Z" fill="white" mask="url(#path-5-inside-2_2012_209)"/>
<path d="M63.6369 26.5371L61.3089 20.0811H63.0729L65.0049 25.6371H64.1649L66.1809 20.0811H67.7649L69.7209 25.6371H68.8809L70.8729 20.0811H72.5289L70.1889 26.5371H68.3769L66.6609 21.7731H67.2129L65.4369 26.5371H63.6369ZM76.4274 26.6331C75.6914 26.6331 75.0434 26.4891 74.4834 26.2011C73.9314 25.9131 73.5034 25.5211 73.1994 25.0251C72.8954 24.5211 72.7434 23.9491 72.7434 23.3091C72.7434 22.6611 72.8914 22.0891 73.1874 21.5931C73.4914 21.0891 73.9034 20.6971 74.4234 20.4171C74.9434 20.1291 75.5314 19.9851 76.1874 19.9851C76.8194 19.9851 77.3874 20.1211 77.8914 20.3931C78.4034 20.6571 78.8074 21.0411 79.1034 21.5451C79.3994 22.0411 79.5474 22.6371 79.5474 23.3331C79.5474 23.4051 79.5434 23.4891 79.5354 23.5851C79.5274 23.6731 79.5194 23.7571 79.5114 23.8371H74.2674V22.7451H78.5274L77.8074 23.0691C77.8074 22.7331 77.7394 22.4411 77.6034 22.1931C77.4674 21.9451 77.2794 21.7531 77.0394 21.6171C76.7994 21.4731 76.5194 21.4011 76.1994 21.4011C75.8794 21.4011 75.5954 21.4731 75.3474 21.6171C75.1074 21.7531 74.9194 21.9491 74.7834 22.2051C74.6474 22.4531 74.5794 22.7491 74.5794 23.0931V23.3811C74.5794 23.7331 74.6554 24.0451 74.8074 24.3171C74.9674 24.5811 75.1874 24.7851 75.4674 24.9291C75.7554 25.0651 76.0914 25.1331 76.4754 25.1331C76.8194 25.1331 77.1194 25.0811 77.3754 24.9771C77.6394 24.8731 77.8794 24.7171 78.0954 24.5091L79.0914 25.5891C78.7954 25.9251 78.4234 26.1851 77.9754 26.3691C77.5274 26.5451 77.0114 26.6331 76.4274 26.6331ZM83.9977 26.6331C83.2617 26.6331 82.6137 26.4891 82.0537 26.2011C81.5017 25.9131 81.0737 25.5211 80.7697 25.0251C80.4657 24.5211 80.3137 23.9491 80.3137 23.3091C80.3137 22.6611 80.4617 22.0891 80.7577 21.5931C81.0617 21.0891 81.4737 20.6971 81.9937 20.4171C82.5137 20.1291 83.1017 19.9851 83.7577 19.9851C84.3897 19.9851 84.9577 20.1211 85.4617 20.3931C85.9737 20.6571 86.3777 21.0411 86.6737 21.5451C86.9697 22.0411 87.1177 22.6371 87.1177 23.3331C87.1177 23.4051 87.1137 23.4891 87.1057 23.5851C87.0977 23.6731 87.0897 23.7571 87.0817 23.8371H81.8377V22.7451H86.0977L85.3777 23.0691C85.3777 22.7331 85.3097 22.4411 85.1737 22.1931C85.0377 21.9451 84.8497 21.7531 84.6097 21.6171C84.3697 21.4731 84.0897 21.4011 83.7697 21.4011C83.4497 21.4011 83.1657 21.4731 82.9177 21.6171C82.6777 21.7531 82.4897 21.9491 82.3537 22.2051C82.2177 22.4531 82.1497 22.7491 82.1497 23.0931V23.3811C82.1497 23.7331 82.2257 24.0451 82.3777 24.3171C82.5377 24.5811 82.7577 24.7851 83.0377 24.9291C83.3257 25.0651 83.6617 25.1331 84.0457 25.1331C84.3897 25.1331 84.6897 25.0811 84.9457 24.9771C85.2097 24.8731 85.4497 24.7171 85.6657 24.5091L86.6617 25.5891C86.3657 25.9251 85.9937 26.1851 85.5457 26.3691C85.0977 26.5451 84.5817 26.6331 83.9977 26.6331ZM89.912 25.2171L89.96 22.9371L92.972 20.0811H95.204L92.312 23.0211L91.34 23.8131L89.912 25.2171ZM88.364 26.5371V17.6331H90.236V26.5371H88.364ZM93.176 26.5371L90.992 23.8251L92.168 22.3731L95.444 26.5371H93.176ZM96.2859 26.5371V17.6331H98.1579V26.5371H96.2859ZM100.711 28.9611C100.375 28.9611 100.043 28.9091 99.7153 28.8051C99.3873 28.7011 99.1193 28.5571 98.9112 28.3731L99.5953 27.0411C99.7393 27.1691 99.9033 27.2691 100.087 27.3411C100.279 27.4131 100.467 27.4491 100.651 27.4491C100.915 27.4491 101.123 27.3851 101.275 27.2571C101.435 27.1371 101.579 26.9331 101.707 26.6451L102.043 25.8531L102.187 25.6491L104.503 20.0811H106.303L103.387 26.9331C103.179 27.4531 102.939 27.8611 102.667 28.1571C102.403 28.4531 102.107 28.6611 101.779 28.7811C101.459 28.9011 101.103 28.9611 100.711 28.9611ZM101.815 26.7891L98.9352 20.0811H100.867L103.099 25.4811L101.815 26.7891Z" fill="white"/>
<path d="M61.2969 22.8171H106.207V23.4171H61.2969V22.8171Z" fill="white"/>
<path d="M127.839 19.9851C128.351 19.9851 128.803 20.0891 129.195 20.2971C129.595 20.4971 129.907 20.8091 130.131 21.2331C130.363 21.6491 130.479 22.1851 130.479 22.8411V26.5371H128.607V23.1291C128.607 22.6091 128.499 22.2251 128.283 21.9771C128.067 21.7291 127.763 21.6051 127.371 21.6051C127.099 21.6051 126.855 21.6691 126.639 21.7971C126.423 21.9171 126.255 22.1011 126.135 22.3491C126.015 22.5971 125.955 22.9131 125.955 23.2971V26.5371H124.083V23.1291C124.083 22.6091 123.975 22.2251 123.759 21.9771C123.551 21.7291 123.251 21.6051 122.859 21.6051C122.587 21.6051 122.343 21.6691 122.127 21.7971C121.911 21.9171 121.743 22.1011 121.623 22.3491C121.503 22.5971 121.443 22.9131 121.443 23.2971V26.5371H119.571V20.0811H121.359V21.8451L121.023 21.3291C121.247 20.8891 121.563 20.5571 121.971 20.3331C122.387 20.1011 122.859 19.9851 123.387 19.9851C123.979 19.9851 124.495 20.1371 124.935 20.4411C125.383 20.7371 125.679 21.1931 125.823 21.8091L125.163 21.6291C125.379 21.1251 125.723 20.7251 126.195 20.4291C126.675 20.1331 127.223 19.9851 127.839 19.9851ZM135.276 26.6331C134.588 26.6331 133.976 26.4891 133.44 26.2011C132.912 25.9131 132.492 25.5211 132.18 25.0251C131.876 24.5211 131.724 23.9491 131.724 23.3091C131.724 22.6611 131.876 22.0891 132.18 21.5931C132.492 21.0891 132.912 20.6971 133.44 20.4171C133.976 20.1291 134.588 19.9851 135.276 19.9851C135.956 19.9851 136.564 20.1291 137.1 20.4171C137.636 20.6971 138.056 21.0851 138.36 21.5811C138.664 22.0771 138.816 22.6531 138.816 23.3091C138.816 23.9491 138.664 24.5211 138.36 25.0251C138.056 25.5211 137.636 25.9131 137.1 26.2011C136.564 26.4891 135.956 26.6331 135.276 26.6331ZM135.276 25.0971C135.588 25.0971 135.868 25.0251 136.116 24.8811C136.364 24.7371 136.56 24.5331 136.704 24.2691C136.848 23.9971 136.92 23.6771 136.92 23.3091C136.92 22.9331 136.848 22.6131 136.704 22.3491C136.56 22.0851 136.364 21.8811 136.116 21.7371C135.868 21.5931 135.588 21.5211 135.276 21.5211C134.964 21.5211 134.684 21.5931 134.436 21.7371C134.188 21.8811 133.988 22.0851 133.836 22.3491C133.692 22.6131 133.62 22.9331 133.62 23.3091C133.62 23.6771 133.692 23.9971 133.836 24.2691C133.988 24.5331 134.188 24.7371 134.436 24.8811C134.684 25.0251 134.964 25.0971 135.276 25.0971ZM143.991 19.9851C144.503 19.9851 144.959 20.0891 145.359 20.2971C145.767 20.4971 146.087 20.8091 146.319 21.2331C146.551 21.6491 146.667 22.1851 146.667 22.8411V26.5371H144.795V23.1291C144.795 22.6091 144.679 22.2251 144.447 21.9771C144.223 21.7291 143.903 21.6051 143.487 21.6051C143.191 21.6051 142.923 21.6691 142.683 21.7971C142.451 21.9171 142.267 22.1051 142.131 22.3611C142.003 22.6171 141.939 22.9451 141.939 23.3451V26.5371H140.067V20.0811H141.855V21.8691L141.519 21.3291C141.751 20.8971 142.083 20.5651 142.515 20.3331C142.947 20.1011 143.439 19.9851 143.991 19.9851ZM151.004 26.6331C150.244 26.6331 149.652 26.4411 149.228 26.0571C148.804 25.6651 148.592 25.0851 148.592 24.3171V18.6531H150.464V24.2931C150.464 24.5651 150.536 24.7771 150.68 24.9291C150.824 25.0731 151.02 25.1451 151.268 25.1451C151.564 25.1451 151.816 25.0651 152.024 24.9051L152.528 26.2251C152.336 26.3611 152.104 26.4651 151.832 26.5371C151.568 26.6011 151.292 26.6331 151.004 26.6331ZM147.596 21.6651V20.2251H152.072V21.6651H147.596ZM157.503 19.9851C158.015 19.9851 158.471 20.0891 158.871 20.2971C159.279 20.4971 159.599 20.8091 159.831 21.2331C160.063 21.6491 160.179 22.1851 160.179 22.8411V26.5371H158.307V23.1291C158.307 22.6091 158.191 22.2251 157.959 21.9771C157.735 21.7291 157.415 21.6051 156.999 21.6051C156.703 21.6051 156.435 21.6691 156.195 21.7971C155.963 21.9171 155.779 22.1051 155.643 22.3611C155.515 22.6171 155.451 22.9451 155.451 23.3451V26.5371H153.579V17.6331H155.451V21.8691L155.031 21.3291C155.263 20.8971 155.595 20.5651 156.027 20.3331C156.459 20.1011 156.951 19.9851 157.503 19.9851ZM161.876 26.5371V17.6331H163.748V26.5371H161.876ZM166.301 28.9611C165.965 28.9611 165.633 28.9091 165.305 28.8051C164.977 28.7011 164.709 28.5571 164.501 28.3731L165.185 27.0411C165.329 27.1691 165.493 27.2691 165.677 27.3411C165.869 27.4131 166.057 27.4491 166.241 27.4491C166.505 27.4491 166.713 27.3851 166.865 27.2571C167.025 27.1371 167.169 26.9331 167.297 26.6451L167.633 25.8531L167.777 25.6491L170.093 20.0811H171.893L168.977 26.9331C168.769 27.4531 168.529 27.8611 168.257 28.1571C167.993 28.4531 167.697 28.6611 167.369 28.7811C167.049 28.9011 166.693 28.9611 166.301 28.9611ZM167.405 26.7891L164.525 20.0811H166.457L168.689 25.4811L167.405 26.7891Z" fill="white"/>
<rect x="1" y="62.7036" width="199" height="140.296" rx="9" stroke="white" stroke-width="2"/>
<path d="M10.0365 98.3516L13.7805 89.9516H15.7005L19.4565 98.3516H17.4165L14.3445 90.9356H15.1125L12.0285 98.3516H10.0365ZM11.9085 96.5516L12.4245 95.0756H16.7445L17.2725 96.5516H11.9085ZM22.8028 98.4476C22.2668 98.4476 21.7868 98.3436 21.3628 98.1356C20.9468 97.9276 20.6228 97.6116 20.3908 97.1876C20.1588 96.7556 20.0428 96.2076 20.0428 95.5436V91.8956H21.9148V95.2676C21.9148 95.8036 22.0268 96.1996 22.2508 96.4556C22.4828 96.7036 22.8068 96.8276 23.2228 96.8276C23.5108 96.8276 23.7668 96.7676 23.9908 96.6476C24.2148 96.5196 24.3908 96.3276 24.5188 96.0716C24.6468 95.8076 24.7108 95.4796 24.7108 95.0876V91.8956H26.5828V98.3516H24.8068V96.5756L25.1308 97.0916C24.9148 97.5396 24.5948 97.8796 24.1708 98.1116C23.7548 98.3356 23.2988 98.4476 22.8028 98.4476ZM31.3531 100.776C30.7451 100.776 30.1571 100.7 29.5891 100.548C29.0291 100.404 28.5611 100.184 28.1851 99.8876L28.9291 98.5436C29.2011 98.7676 29.5451 98.9436 29.9611 99.0716C30.3851 99.2076 30.8011 99.2756 31.2091 99.2756C31.8731 99.2756 32.3531 99.1276 32.6491 98.8316C32.9531 98.5356 33.1051 98.0956 33.1051 97.5116V96.5396L33.2251 94.9196L33.2011 93.2876V91.8956H34.9771V97.2716C34.9771 98.4716 34.6651 99.3556 34.0411 99.9236C33.4171 100.492 32.5211 100.776 31.3531 100.776ZM31.0651 98.0396C30.4651 98.0396 29.9211 97.9116 29.4331 97.6556C28.9531 97.3916 28.5651 97.0276 28.2691 96.5636C27.9811 96.0916 27.8371 95.5436 27.8371 94.9196C27.8371 94.2876 27.9811 93.7396 28.2691 93.2756C28.5651 92.8036 28.9531 92.4396 29.4331 92.1836C29.9211 91.9276 30.4651 91.7996 31.0651 91.7996C31.6091 91.7996 32.0891 91.9116 32.5051 92.1356C32.9211 92.3516 33.2451 92.6916 33.4771 93.1556C33.7091 93.6116 33.8251 94.1996 33.8251 94.9196C33.8251 95.6316 33.7091 96.2196 33.4771 96.6836C33.2451 97.1396 32.9211 97.4796 32.5051 97.7036C32.0891 97.9276 31.6091 98.0396 31.0651 98.0396ZM31.4371 96.5036C31.7651 96.5036 32.0571 96.4396 32.3131 96.3116C32.5691 96.1756 32.7691 95.9876 32.9131 95.7476C33.0571 95.5076 33.1291 95.2316 33.1291 94.9196C33.1291 94.5996 33.0571 94.3236 32.9131 94.0916C32.7691 93.8516 32.5691 93.6676 32.3131 93.5396C32.0571 93.4036 31.7651 93.3356 31.4371 93.3356C31.1091 93.3356 30.8171 93.4036 30.5611 93.5396C30.3051 93.6676 30.1011 93.8516 29.9491 94.0916C29.8051 94.3236 29.7331 94.5996 29.7331 94.9196C29.7331 95.2316 29.8051 95.5076 29.9491 95.7476C30.1011 95.9876 30.3051 96.1756 30.5611 96.3116C30.8171 96.4396 31.1091 96.5036 31.4371 96.5036Z" fill="white"/>
<rect x="11" y="116.352" width="23" height="23" rx="11.5" stroke="white" stroke-width="2"/>
<path d="M21.9144 132.352V124.672L22.7544 125.512H20.2344V123.952H23.8584V132.352H21.9144Z" fill="white"/>
<rect x="50" y="116.352" width="23" height="23" rx="11.5" stroke="white" stroke-width="2"/>
<path d="M58.3569 132.352V131.092L61.5969 128.032C61.8529 127.8 62.0409 127.592 62.1609 127.408C62.2809 127.224 62.3609 127.056 62.4009 126.904C62.4489 126.752 62.4729 126.612 62.4729 126.484C62.4729 126.148 62.3569 125.892 62.1249 125.716C61.9009 125.532 61.5689 125.44 61.1289 125.44C60.7769 125.44 60.4489 125.508 60.1449 125.644C59.8489 125.78 59.5969 125.992 59.3889 126.28L57.9729 125.368C58.2929 124.888 58.7409 124.508 59.3169 124.228C59.8929 123.948 60.5569 123.808 61.3089 123.808C61.9329 123.808 62.4769 123.912 62.9409 124.12C63.4129 124.32 63.7769 124.604 64.0329 124.972C64.2969 125.34 64.4289 125.78 64.4289 126.292C64.4289 126.564 64.3929 126.836 64.3209 127.108C64.2569 127.372 64.1209 127.652 63.9129 127.948C63.7129 128.244 63.4169 128.576 63.0249 128.944L60.3369 131.476L59.9649 130.768H64.7049V132.352H58.3569Z" fill="white"/>
<rect x="89" y="116.352" width="23" height="23" rx="11.5" stroke="white" stroke-width="2"/>
<path d="M100.141 132.496C99.5572 132.496 98.9772 132.42 98.4012 132.268C97.8252 132.108 97.3372 131.884 96.9372 131.596L97.6932 130.108C98.0132 130.34 98.3852 130.524 98.8092 130.66C99.2332 130.796 99.6612 130.864 100.093 130.864C100.581 130.864 100.965 130.768 101.245 130.576C101.525 130.384 101.665 130.12 101.665 129.784C101.665 129.464 101.541 129.212 101.293 129.028C101.045 128.844 100.645 128.752 100.093 128.752H99.2052V127.468L101.545 124.816L101.761 125.512H97.3572V123.952H103.237V125.212L100.909 127.864L99.9252 127.3H100.489C101.521 127.3 102.301 127.532 102.829 127.996C103.357 128.46 103.621 129.056 103.621 129.784C103.621 130.256 103.497 130.7 103.249 131.116C103.001 131.524 102.621 131.856 102.109 132.112C101.597 132.368 100.941 132.496 100.141 132.496Z" fill="white"/>
<rect x="128" y="116.352" width="23" height="23" rx="11.5" stroke="white" stroke-width="2"/>
<path d="M135.735 130.588V129.28L139.695 123.952H141.735L137.859 129.28L136.911 129.004H143.523V130.588H135.735ZM140.259 132.352V130.588L140.319 129.004V127.432H142.155V132.352H140.259Z" fill="white"/>
<rect x="167" y="116.352" width="23" height="23" rx="11.5" stroke="white" stroke-width="2"/>
<path d="M178.256 132.496C177.672 132.496 177.092 132.42 176.516 132.268C175.948 132.108 175.46 131.884 175.052 131.596L175.82 130.108C176.14 130.34 176.508 130.524 176.924 130.66C177.348 130.796 177.776 130.864 178.208 130.864C178.696 130.864 179.08 130.768 179.36 130.576C179.64 130.384 179.78 130.116 179.78 129.772C179.78 129.556 179.724 129.364 179.612 129.196C179.5 129.028 179.3 128.9 179.012 128.812C178.732 128.724 178.336 128.68 177.824 128.68H175.676L176.108 123.952H181.232V125.512H176.804L177.812 124.624L177.512 127.996L176.504 127.108H178.28C179.112 127.108 179.78 127.224 180.284 127.456C180.796 127.68 181.168 127.988 181.4 128.38C181.632 128.772 181.748 129.216 181.748 129.712C181.748 130.208 181.624 130.668 181.376 131.092C181.128 131.508 180.744 131.848 180.224 132.112C179.712 132.368 179.056 132.496 178.256 132.496Z" fill="white"/>
<rect x="11" y="155.352" width="23" height="23" rx="11.5" stroke="white" stroke-width="2"/>
<path d="M22.9037 171.496C22.1357 171.496 21.4677 171.336 20.8997 171.016C20.3397 170.696 19.9077 170.228 19.6037 169.612C19.2997 168.996 19.1477 168.236 19.1477 167.332C19.1477 166.364 19.3277 165.544 19.6877 164.872C20.0557 164.2 20.5597 163.688 21.1997 163.336C21.8477 162.984 22.5917 162.808 23.4317 162.808C23.8797 162.808 24.3077 162.856 24.7157 162.952C25.1237 163.048 25.4757 163.192 25.7717 163.384L25.0517 164.812C24.8197 164.652 24.5717 164.544 24.3077 164.488C24.0437 164.424 23.7677 164.392 23.4797 164.392C22.7517 164.392 22.1757 164.612 21.7517 165.052C21.3277 165.492 21.1157 166.144 21.1157 167.008C21.1157 167.152 21.1157 167.312 21.1157 167.488C21.1237 167.664 21.1477 167.84 21.1877 168.016L20.6477 167.512C20.7997 167.2 20.9957 166.94 21.2357 166.732C21.4757 166.516 21.7597 166.356 22.0877 166.252C22.4237 166.14 22.7917 166.084 23.1917 166.084C23.7357 166.084 24.2237 166.192 24.6557 166.408C25.0877 166.624 25.4317 166.928 25.6877 167.32C25.9517 167.712 26.0837 168.172 26.0837 168.7C26.0837 169.268 25.9397 169.764 25.6517 170.188C25.3717 170.604 24.9917 170.928 24.5117 171.16C24.0397 171.384 23.5037 171.496 22.9037 171.496ZM22.7957 170.044C23.0677 170.044 23.3077 169.996 23.5157 169.9C23.7317 169.796 23.8997 169.648 24.0197 169.456C24.1397 169.264 24.1997 169.044 24.1997 168.796C24.1997 168.412 24.0677 168.108 23.8037 167.884C23.5477 167.652 23.2037 167.536 22.7717 167.536C22.4837 167.536 22.2317 167.592 22.0157 167.704C21.7997 167.808 21.6277 167.956 21.4997 168.148C21.3797 168.332 21.3197 168.548 21.3197 168.796C21.3197 169.036 21.3797 169.252 21.4997 169.444C21.6197 169.628 21.7877 169.776 22.0037 169.888C22.2197 169.992 22.4837 170.044 22.7957 170.044Z" fill="white"/>
<rect x="50" y="155.352" width="23" height="23" rx="11.5" stroke="white" stroke-width="2"/>
<path d="M59.5913 171.352L62.9753 163.696L63.4793 164.536H58.9553L59.8193 163.624V165.904H58.0913V162.952H64.8233V164.212L61.7033 171.352H59.5913Z" fill="white"/>
<rect x="89" y="155.352" width="23" height="23" rx="11.5" stroke="white" stroke-width="2"/>
<path d="M100.487 171.496C99.7831 171.496 99.1671 171.392 98.6391 171.184C98.1111 170.968 97.6991 170.668 97.4031 170.284C97.1071 169.892 96.9591 169.436 96.9591 168.916C96.9591 168.396 97.1031 167.956 97.3911 167.596C97.6871 167.228 98.0991 166.952 98.6271 166.768C99.1551 166.576 99.7751 166.48 100.487 166.48C101.207 166.48 101.831 166.576 102.359 166.768C102.895 166.952 103.307 167.228 103.595 167.596C103.891 167.956 104.039 168.396 104.039 168.916C104.039 169.436 103.891 169.892 103.595 170.284C103.299 170.668 102.883 170.968 102.347 171.184C101.819 171.392 101.199 171.496 100.487 171.496ZM100.487 170.068C100.975 170.068 101.359 169.96 101.639 169.744C101.927 169.528 102.071 169.232 102.071 168.856C102.071 168.48 101.927 168.188 101.639 167.98C101.359 167.764 100.975 167.656 100.487 167.656C100.007 167.656 99.6271 167.764 99.3471 167.98C99.0671 168.188 98.9271 168.48 98.9271 168.856C98.9271 169.232 99.0671 169.528 99.3471 169.744C99.6271 169.96 100.007 170.068 100.487 170.068ZM100.487 167.464C99.8391 167.464 99.2711 167.376 98.7831 167.2C98.3031 167.024 97.9271 166.768 97.6551 166.432C97.3911 166.088 97.2591 165.68 97.2591 165.208C97.2591 164.712 97.3951 164.288 97.6671 163.936C97.9391 163.576 98.3191 163.3 98.8071 163.108C99.2951 162.908 99.8551 162.808 100.487 162.808C101.135 162.808 101.699 162.908 102.179 163.108C102.667 163.3 103.047 163.576 103.319 163.936C103.599 164.288 103.739 164.712 103.739 165.208C103.739 165.68 103.603 166.088 103.331 166.432C103.067 166.768 102.691 167.024 102.203 167.2C101.715 167.376 101.143 167.464 100.487 167.464ZM100.487 166.324C100.895 166.324 101.215 166.232 101.447 166.048C101.687 165.864 101.807 165.612 101.807 165.292C101.807 164.956 101.683 164.696 101.435 164.512C101.195 164.328 100.879 164.236 100.487 164.236C100.103 164.236 99.7911 164.328 99.5511 164.512C99.3111 164.696 99.1911 164.956 99.1911 165.292C99.1911 165.612 99.3071 165.864 99.5391 166.048C99.7711 166.232 100.087 166.324 100.487 166.324Z" fill="white"/>
<rect x="128" y="155.352" width="23" height="23" rx="11.5" stroke="white" stroke-width="2"/>
<path d="M139.1 162.808C139.876 162.808 140.544 162.968 141.104 163.288C141.664 163.608 142.096 164.076 142.4 164.692C142.704 165.3 142.856 166.06 142.856 166.972C142.856 167.94 142.672 168.76 142.304 169.432C141.944 170.104 141.444 170.616 140.804 170.968C140.164 171.32 139.42 171.496 138.572 171.496C138.132 171.496 137.708 171.448 137.3 171.352C136.892 171.256 136.54 171.112 136.244 170.92L136.964 169.492C137.196 169.652 137.444 169.764 137.708 169.828C137.972 169.884 138.248 169.912 138.536 169.912C139.256 169.912 139.828 169.692 140.252 169.252C140.684 168.812 140.9 168.16 140.9 167.296C140.9 167.152 140.896 166.992 140.888 166.816C140.88 166.64 140.86 166.464 140.828 166.288L141.356 166.792C141.22 167.104 141.028 167.368 140.78 167.584C140.532 167.792 140.244 167.952 139.916 168.064C139.588 168.168 139.22 168.22 138.812 168.22C138.276 168.22 137.788 168.112 137.348 167.896C136.916 167.68 136.568 167.376 136.304 166.984C136.048 166.592 135.92 166.132 135.92 165.604C135.92 165.028 136.06 164.532 136.34 164.116C136.628 163.7 137.012 163.38 137.492 163.156C137.98 162.924 138.516 162.808 139.1 162.808ZM139.22 164.26C138.94 164.26 138.696 164.312 138.488 164.416C138.28 164.512 138.116 164.656 137.996 164.848C137.876 165.032 137.816 165.252 137.816 165.508C137.816 165.892 137.944 166.2 138.2 166.432C138.464 166.656 138.812 166.768 139.244 166.768C139.524 166.768 139.772 166.716 139.988 166.612C140.212 166.5 140.384 166.348 140.504 166.156C140.624 165.964 140.684 165.748 140.684 165.508C140.684 165.268 140.624 165.056 140.504 164.872C140.392 164.68 140.228 164.532 140.012 164.428C139.796 164.316 139.532 164.26 139.22 164.26Z" fill="white"/>
</svg>
