<svg width="167" height="162" viewBox="0 0 167 162" fill="none" xmlns="http://www.w3.org/2000/svg">
<path d="M83.5007 0C37.8047 0 0.75 37.0479 0.75 82.7507C0.75 119.312 24.4606 150.331 57.34 161.273C61.4756 162.039 62.9939 159.477 62.9939 157.292C62.9939 155.319 62.9172 148.8 62.8815 141.885C39.8602 146.891 35.0024 132.122 35.0024 132.122C31.2382 122.557 25.8145 120.014 25.8145 120.014C18.3065 114.878 26.3804 114.983 26.3804 114.983C34.69 115.567 39.0654 123.511 39.0654 123.511C46.446 136.162 58.4239 132.504 63.146 130.39C63.8887 125.041 66.0333 121.391 68.3998 119.324C50.0197 117.232 30.6983 110.136 30.6983 78.4287C30.6983 69.3942 33.9308 62.0123 39.2244 56.2172C38.3652 54.133 35.5327 45.7165 40.026 34.3182C40.026 34.3182 46.9749 32.0942 62.7883 42.8005C69.3892 40.967 76.4682 40.0475 83.5007 40.016C90.5331 40.0475 97.6177 40.967 104.231 42.8005C120.025 32.0942 126.964 34.3182 126.964 34.3182C131.469 45.7165 128.635 54.133 127.776 56.2172C133.081 62.0123 136.292 69.3942 136.292 78.4287C136.292 110.212 116.934 117.21 98.507 119.259C101.475 121.827 104.12 126.863 104.12 134.583C104.12 145.655 104.024 154.566 104.024 157.292C104.024 159.494 105.513 162.074 109.708 161.262C142.57 150.307 166.25 119.3 166.25 82.7507C166.25 37.0479 129.201 0 83.5007 0ZM31.7428 117.88C31.5606 118.291 30.9138 118.415 30.3245 118.132C29.7243 117.862 29.3872 117.302 29.5818 116.889C29.76 116.466 30.4081 116.348 31.007 116.632C31.6085 116.902 31.9511 117.468 31.7428 117.88ZM35.8132 121.512C35.4186 121.878 34.6471 121.708 34.1236 121.13C33.5824 120.553 33.481 119.781 33.8811 119.41C34.2881 119.044 35.0363 119.215 35.5789 119.792C36.1202 120.376 36.2257 121.142 35.8132 121.512ZM38.6057 126.159C38.0987 126.511 37.2696 126.181 36.7571 125.445C36.2501 124.709 36.2501 123.827 36.7681 123.473C37.282 123.12 38.0987 123.438 38.618 124.168C39.1237 124.916 39.1237 125.799 38.6057 126.159ZM43.3283 131.541C42.8748 132.041 41.9087 131.907 41.2016 131.224C40.4781 130.557 40.2766 129.61 40.7316 129.11C41.1906 128.608 42.1622 128.75 42.8748 129.427C43.5928 130.093 43.8121 131.046 43.3283 131.541ZM49.4319 133.358C49.2318 134.006 48.3014 134.301 47.3641 134.025C46.4282 133.741 45.8156 132.982 46.0047 132.327C46.1993 131.675 47.1339 131.368 48.078 131.663C49.0126 131.945 49.6265 132.699 49.4319 133.358ZM56.378 134.128C56.4013 134.811 55.6065 135.377 54.6226 135.389C53.6333 135.411 52.833 134.859 52.822 134.187C52.822 133.498 53.599 132.938 54.5884 132.921C55.5723 132.902 56.378 133.45 56.378 134.128ZM63.2018 133.867C63.3196 134.533 62.6358 135.217 61.6588 135.399C60.6982 135.574 59.8089 135.163 59.6869 134.503C59.5677 133.82 60.2638 133.137 61.223 132.96C62.2014 132.79 63.0771 133.19 63.2018 133.867Z" fill="white"/>
</svg>
