<svg width="301" height="240" viewBox="0 0 301 240" fill="none" xmlns="http://www.w3.org/2000/svg">
<path d="M267.01 53.7233C267.282 53.9715 267.536 54.5282 267.496 55.6753C267.456 56.7967 267.137 58.2671 266.523 60.0043C265.3 63.4664 262.989 67.7647 259.863 72.0492C256.738 76.3338 253.436 79.7301 250.648 81.7656C249.25 82.7868 248.026 83.4314 247.051 83.7C246.054 83.9748 245.516 83.8089 245.243 83.561C244.971 83.3129 244.717 82.7561 244.757 81.6083C244.797 80.487 245.115 79.0172 245.729 77.2801C246.952 73.8179 249.264 69.5191 252.39 65.2345C255.515 60.95 258.817 57.5544 261.604 55.5188C263.003 54.4975 264.227 53.8522 265.202 53.5836C266.199 53.3088 266.738 53.4753 267.01 53.7233Z" stroke="white" stroke-width="2"/>
<path d="M249.564 67.4204L244.653 84.3691L259.559 74.1531L133.122 235.032L249.564 67.4204Z" fill="white"/>
<path d="M1.16908 64.1625C1.16908 64.1625 82.8554 150.874 94.6141 111.916C106.373 72.9575 109.259 41.1007 153.816 56.7827C198.373 72.4648 248.704 158.254 273.664 127.598C298.624 96.9421 228.901 56.7826 237.153 23.574C245.405 -9.63462 299.862 14.3493 299.862 14.3493" stroke="white" stroke-width="2"/>
</svg>
