<svg width="217" height="172" viewBox="0 0 217 172" fill="none" xmlns="http://www.w3.org/2000/svg">
<path d="M87.5918 26.3262C89.9066 26.3262 92.3417 28.0066 94.7383 31.6162C97.1093 35.1874 99.2837 40.4208 101.125 46.9775C104.804 60.0774 107.092 78.2324 107.092 98.3262C107.092 118.42 104.804 136.575 101.125 149.675C99.2837 156.232 97.1093 161.465 94.7383 165.036C92.3417 168.646 89.9066 170.326 87.5918 170.326C85.277 170.326 82.8419 168.646 80.4453 165.036C78.0743 161.465 75.8999 156.232 74.0586 149.675C70.3799 136.575 68.0918 118.42 68.0918 98.3262C68.0918 78.2324 70.3799 60.0774 74.0586 46.9775C75.8999 40.4208 78.0743 35.1874 80.4453 31.6162C82.8419 28.0066 85.277 26.3262 87.5918 26.3262Z" stroke="white" stroke-width="2"/>
<path d="M194.851 17.6585C195.479 18.4943 195.737 19.7254 195.456 21.4718C195.174 23.2194 194.367 25.3676 193.025 27.8817C190.345 32.9046 185.641 39.1822 179.25 46.3018C166.479 60.5288 147.11 77.963 124.17 95.2153C101.231 112.467 79.1079 126.238 61.8961 134.561C53.2826 138.726 45.946 141.504 40.3764 142.686C37.5889 143.277 35.3018 143.456 33.5447 143.242C31.7888 143.028 30.6775 142.438 30.049 141.603C29.4204 140.767 29.1627 139.536 29.4441 137.789C29.7258 136.042 30.5318 133.894 31.8735 131.38C34.5543 126.357 39.2585 120.079 45.6498 112.959C58.4211 98.7324 77.7895 81.2986 100.729 64.0464C123.668 46.7941 145.792 33.0227 163.004 24.6999C171.617 20.535 178.953 17.7577 184.523 16.5758C187.31 15.9842 189.598 15.8052 191.355 16.0194C193.111 16.2336 194.222 16.8228 194.851 17.6585Z" stroke="white" stroke-width="2"/>
<path d="M14.9921 49.8072C16.7317 46.0623 20.8424 43.4406 27.1615 42.0843C33.46 40.7325 41.7564 40.6873 51.5073 41.9225C70.9976 44.3916 96.0677 51.9465 122.073 64.0263C148.077 76.1061 170.021 90.3899 184.479 103.691C191.713 110.345 197.03 116.714 200.06 122.399C203.099 128.103 203.747 132.935 202.008 136.68C200.268 140.425 196.157 143.047 189.838 144.403C183.54 145.755 175.244 145.8 165.493 144.565C146.002 142.095 120.933 134.541 94.9283 122.461C68.9235 110.381 46.9793 96.0972 32.5206 82.7963C25.287 76.1419 19.9701 69.773 16.9403 64.088C13.9007 58.3845 13.2525 53.5521 14.9921 49.8072Z" stroke="white" stroke-width="2"/>
<path d="M86.1279 90.3262C88.8404 90.3264 91.1631 92.7177 91.1631 95.8262C91.1631 98.9347 88.8404 101.326 86.1279 101.326C83.4153 101.326 81.0918 98.9348 81.0918 95.8262C81.0918 92.7175 83.4153 90.3262 86.1279 90.3262Z" stroke="white" stroke-width="2"/>
</svg>
