<svg width="211" height="158" viewBox="0 0 211 158" fill="none" xmlns="http://www.w3.org/2000/svg">
<path fill-rule="evenodd" clip-rule="evenodd" d="M79.2153 1.30571C75.6398 1.99765 68.8137 3.97979 64.0463 5.71254C25.0575 19.8772 -1.90298 45.4057 0.105117 66.2578C1.07738 76.3529 6.76072 83.4944 24.0303 96.317C37.931 106.639 40.6325 109.291 37.2404 109.291C34.8235 109.291 18.5579 120.751 13.2849 126.17C3.71969 135.997 3.45675 151.341 12.7691 156.146C16.7968 158.225 34.8682 158.739 33.6316 156.74C33.0393 155.781 43.243 150.439 44.9044 150.837C45.4996 150.979 45.8246 150.284 45.6267 149.294C45.4274 148.302 46.1266 147.671 47.1783 147.889C48.2315 148.106 48.6807 147.619 48.1766 146.807C47.6738 145.994 47.7923 145.33 48.4395 145.33C52.3155 145.33 56.9125 124.972 55.0286 116.153C53.6273 109.597 54.1084 108.344 58.1058 108.156C58.8122 108.123 59.8914 107.286 60.5039 106.295C61.1165 105.307 61.5167 109.305 61.3924 115.183C61.2205 123.33 61.8518 127.224 64.0506 131.569C67.7779 138.934 73.5984 140.844 78.23 136.222C79.9637 134.492 81.9183 133.255 82.5742 133.473C83.2301 133.691 83.35 132.561 82.8414 130.959C82.1364 128.74 82.4398 128.25 84.1229 128.895C85.3364 129.359 86.7218 130.976 87.2029 132.488C87.684 134.002 88.847 135.287 89.786 135.346C90.7265 135.405 92.9975 135.732 94.8337 136.071C96.6699 136.411 97.8415 136.157 97.4384 135.506C97.0353 134.855 97.9715 133.412 99.5187 132.3C101.065 131.188 102.33 128.831 102.33 127.064C102.33 125.297 103.233 123.332 104.337 122.697C105.439 122.063 106.615 120.247 106.95 118.661C107.284 117.075 108.38 115.957 109.386 116.174C110.39 116.392 110.797 115.899 110.29 115.08C109.782 114.26 109.789 112.263 110.305 110.643C111.099 108.145 111.59 107.982 113.542 109.575C115.565 111.226 115.654 111.11 114.279 108.631C113.052 106.419 113.232 105.38 115.107 103.839C116.423 102.755 116.694 102.275 115.709 102.772C114.533 103.365 114.214 102.911 114.777 101.446C115.25 100.219 116.327 99.6441 117.174 100.166C118.155 100.77 118.36 100.198 117.74 98.586C117.204 97.1949 117.187 95.3786 117.701 94.5482C118.484 93.284 123.996 105.129 123.999 108.084C124 108.609 120.75 112.921 116.777 117.665C106.97 129.375 107.339 133.294 118.18 132.589C120.984 132.406 124.363 132.235 125.689 132.207C127.015 132.181 128.474 131.19 128.929 130.003C129.386 128.818 130.384 128.234 131.15 128.706C132.998 129.846 137.295 123.153 137.869 118.242C138.12 116.094 137.756 112.23 137.06 109.657C136.046 105.912 136.274 104.698 138.204 103.574C139.912 102.581 140.036 102.158 138.632 102.126C137.04 102.092 137.001 101.659 138.434 99.9368C139.416 98.7561 140.896 98.2083 141.723 98.7186C142.593 99.2549 142.795 98.9478 142.203 97.9921C141.641 97.0839 141.845 95.1998 142.658 93.8058C143.821 91.815 144.152 91.7343 144.204 93.4339C144.263 95.3555 144.423 95.3555 145.659 93.4339C146.424 92.2446 146.741 89.9742 146.362 88.3885C145.985 86.8028 146.927 88.1002 148.456 91.2716C152.265 99.1771 152.148 100.088 146.471 106.708C140.472 113.699 138.64 120.193 141.783 123.327C144.449 125.988 156.02 124.733 158.718 121.489C159.668 120.348 161.037 119.78 161.761 120.225C162.485 120.672 162.899 120.179 162.681 119.128C162.463 118.079 162.982 117.344 163.834 117.495C164.686 117.646 165.384 116.673 165.383 115.333C165.374 104.692 165.994 102.759 170.176 100.385C174.169 98.1175 180.545 97.8883 188.288 99.7321C189.877 100.111 191.903 100.47 192.787 100.531C196.151 100.761 203.457 108.76 204.322 113.16C205.058 116.902 204.513 118.459 201.364 121.602C199.24 123.721 197.778 125.728 198.113 126.062C199.73 127.675 206.241 123.401 208.824 119.033C211.71 114.152 211.71 114.09 208.912 106.602C206.79 100.929 204.646 98.1175 200.192 95.1739C194.925 91.6925 192.949 91.2716 181.897 91.2716C175.082 91.2716 167.882 91.5959 165.896 91.9924C163.909 92.3888 162.177 92.1365 162.046 91.433C161.916 90.7281 160.968 89.634 159.939 88.9997C157.859 87.7167 157.412 76.2434 159.21 70.2047C160.152 67.0434 159.815 66.3024 157.121 65.599C155.354 65.1377 152.154 65.1103 150.01 65.5384C146.81 66.177 145.692 67.6474 143.762 73.7553C141.028 82.4075 132.022 97.3319 130.763 95.2964C129.605 93.431 129.499 85.4419 130.527 77.9372L131.368 71.8106H124.75C119.715 71.8106 117.938 72.4146 117.329 74.3333C114.673 82.6814 106.069 102.083 105.021 102.083C104.335 102.083 103.915 102.57 104.085 103.164C104.579 104.888 99.1619 117.94 97.9513 117.94C97.3488 117.94 97.476 115.508 98.2344 112.534C98.9929 109.562 99.8351 105.831 100.107 104.246C100.377 102.66 101.046 99.6311 101.592 97.5164C102.359 94.541 101.944 93.3287 99.7571 92.161C98.2026 91.3321 96.521 91.0626 96.0183 91.5628C95.517 92.063 95.1067 90.4643 95.1067 88.0108C95.1067 76.5908 85.2988 76.3212 73.087 87.4039C69.7036 90.4744 62.8848 95.1162 57.9353 97.7196L48.935 102.454L38.4322 94.0913C20.9546 80.1731 14.8697 72.2445 17.9035 67.3447C18.5926 66.2347 18.3788 65.9723 17.3184 66.6282C15.1138 67.9862 15.2121 65.9738 17.6275 60.2393C18.7168 57.6574 19.9101 56.1236 20.28 56.83C20.6512 57.5378 20.7437 57.2711 20.4851 56.239C19.8596 53.7321 24.2889 47.1168 25.92 48.123C26.6278 48.5584 27.2216 47.7424 27.2375 46.3081C27.2722 43.4423 37.1451 35.7718 40.8015 35.7718C42.0642 35.7718 43.0985 34.8405 43.0985 33.7032C43.0985 32.5643 45.3739 30.8128 48.1549 29.8095C50.9359 28.8062 53.2112 27.5175 53.2112 26.948C53.2112 26.3772 55.1615 25.482 57.5453 24.9601C59.929 24.4383 61.8793 23.5431 61.8793 22.9722C61.8793 21.2842 71.8287 18.2021 73.6519 19.3266C74.7137 19.981 74.9362 19.7288 74.2615 18.6375C73.4843 17.3833 74.2673 17.1844 77.1422 17.9052C79.682 18.5409 80.7655 18.3694 80.1818 17.4251C79.1705 15.7933 94.0449 13.5373 102.33 14.0649C105.111 14.2422 109.987 15.802 113.165 17.5304C118.353 20.3515 118.99 21.3072 119.392 26.8659C120.241 38.5857 110.521 50.0028 91.8475 59.2215C83.951 63.1195 81.2697 63.6875 70.3176 63.7783C59.38 63.8691 57.2332 63.4583 53.2286 60.5117C50.7105 58.6579 48.2315 57.5594 47.7186 58.0712C45.7437 60.0418 51.365 66.9165 57.5583 70.1053C63.3326 73.0792 65.397 73.3588 76.326 72.6482C92.3936 71.603 98.1795 70.4887 101.193 67.8564C102.554 66.6672 104.701 66.0905 105.963 66.5734C107.294 67.0838 107.886 66.8531 107.375 66.0257C106.888 65.24 107.992 63.9224 109.828 63.0964C115.758 60.4296 119.666 57.8766 118.935 57.1457C118.542 56.7536 120.713 53.7393 123.759 50.4482C126.806 47.1557 129.341 43.6412 129.393 42.6393C129.447 41.6375 130.462 37.7482 131.651 33.9987C133.539 28.0407 133.552 26.2936 131.755 20.1742C130.623 16.3209 127.928 11.4946 125.766 9.4476C117.287 1.42536 96.9718 -2.12807 79.2153 1.30571ZM83.571 90.1904C83.5595 91.1822 82.1986 93.3402 80.5488 94.9865C78.8975 96.6342 77.9151 98.9377 78.3644 100.107C78.8238 101.302 78.5566 101.847 77.7548 101.352C76.9689 100.868 76.326 101.769 76.326 103.355C76.326 104.94 75.6759 106.639 74.8813 107.129C74.0867 107.619 73.4468 108.792 73.4583 109.736C73.4728 110.797 74.0766 110.627 75.0402 109.291C76.2928 107.552 76.3997 107.692 75.5849 110.012C75.0272 111.597 74.3627 115.653 74.107 119.021C73.727 124.047 73.9798 124.811 75.5199 123.275C78.4944 120.306 81.5427 113.676 84.8337 103.013C87.5496 94.2095 89.0521 84.8841 86.8721 90.3533C86.2104 92.0125 85.894 92.0125 84.8409 90.3533C83.9278 88.9146 83.5883 88.8714 83.571 90.1904ZM152.709 108.847C151.002 110.947 151.028 111.132 152.894 110.182C154.085 109.574 153.798 110.098 152.256 111.347C150.714 112.595 150.063 113.626 150.812 113.637C151.559 113.65 151.196 114.289 150.004 115.057C148.734 115.876 148.542 116.464 149.54 116.477C152.164 116.51 155.783 112.287 155.783 109.189C155.783 105.776 155.253 105.717 152.709 108.847ZM42.5438 116.294C41.0471 117.955 39.26 118.967 38.5709 118.541C37.8833 118.118 37.3199 118.458 37.3199 119.297C37.3199 120.136 36.1829 120.833 34.7917 120.845C32.6305 120.864 32.5784 121.071 34.4305 122.265C36.1916 123.399 36.0009 123.666 33.4207 123.685C29.2124 123.714 21.2074 132.266 22.2664 135.599C22.707 136.988 22.3733 138.122 21.5253 138.122C18.6576 138.122 19.9607 142.532 23.1809 143.72C27.6608 145.373 30.4895 144.342 37.1956 138.614C43.5421 133.193 46.5282 126.038 45.7466 118.131L45.2655 113.274L42.5438 116.294Z" fill="white"/>
</svg>
