<svg width="200" height="100" viewBox="0 0 200 100" fill="none" xmlns="http://www.w3.org/2000/svg">
<rect x="2.6167" y="1" width="194.766" height="29.0811" rx="14.5405" stroke="white" stroke-width="2"/>
<circle cx="13.1167" cy="15.5405" r="1.5" fill="#D9D9D9"/>
<circle cx="26.1167" cy="15.5405" r="1.5" fill="#D9D9D9"/>
<circle cx="39.1167" cy="15.5405" r="1.5" fill="#D9D9D9"/>
<rect x="2.6167" y="69.9189" width="194.766" height="29.0811" rx="14.5405" stroke="white" stroke-width="2"/>
<circle cx="13.1167" cy="84.4595" r="1.5" fill="#D9D9D9"/>
<circle cx="26.1167" cy="84.4595" r="1.5" fill="#D9D9D9"/>
<circle cx="39.1167" cy="84.4595" r="1.5" fill="#D9D9D9"/>
<rect x="1.16062" y="0.865125" width="194.193" height="28.7252" rx="14.3626" transform="matrix(0.992692 -0.120673 0.167932 0.985798 -0.136801 44.5811)" stroke="white" stroke-width="2"/>
<circle cx="1.5" cy="1.5" r="1.5" transform="matrix(0.992692 -0.120673 0.167932 0.985798 12.2549 56.8877)" fill="#D9D9D9"/>
<circle cx="1.5" cy="1.5" r="1.5" transform="matrix(0.992692 -0.120673 0.167932 0.985798 25.1597 55.3188)" fill="#D9D9D9"/>
<circle cx="1.5" cy="1.5" r="1.5" transform="matrix(0.992692 -0.120673 0.167932 0.985798 38.0649 53.75)" fill="#D9D9D9"/>
</svg>
