<svg width="107" height="83" viewBox="0 0 107 83" fill="none" xmlns="http://www.w3.org/2000/svg">
<path d="M2.46973 47.1571C2.46973 47.1571 29.4166 13.4735 33.4587 12.7998C37.5007 12.1261 62.9319 25.5837 65.1213 23.739C67.3108 21.8944 106.215 0 106.215 0C106.215 0 71.5212 45.4729 67.3108 47.1571C63.1003 48.8413 50.2261 34.5911 37.5007 33.868C22.8925 33.0378 2.46973 47.1571 2.46973 47.1571Z" fill="white"/>
<path d="M0.785156 82.8617C0.785156 82.8617 27.7321 49.1781 31.7741 48.5044C35.8162 47.8307 61.2473 61.2883 63.4367 59.4436C65.6262 57.599 104.531 35.7046 104.531 35.7046C104.531 35.7046 69.8366 81.1775 65.6262 82.8617C61.4157 84.5459 48.5416 70.2957 35.8162 69.5725C21.208 68.7424 0.785156 82.8617 0.785156 82.8617Z" fill="white"/>
</svg>
