<svg width="290" height="206" viewBox="0 0 290 206" fill="none" xmlns="http://www.w3.org/2000/svg">
<path d="M71 5.66286C71 5.66286 43.695 -4.82857 38.7305 5.66286C33.766 16.1543 46.6738 58.9943 38.7305 73.8571C30.7872 88.72 0.999999 94.84 0.999999 94.84C0.999999 94.84 33.766 94.84 38.7305 109.703C43.695 124.566 32.773 182.269 38.7305 198.006C44.6879 213.743 71 198.006 71 198.006" stroke="white" stroke-width="2"/>
<path d="M218 5.66286C218 5.66286 245.695 -4.82857 250.73 5.66286C255.766 16.1543 242.674 58.9943 250.73 73.8571C258.787 88.72 289 94.84 289 94.84C289 94.84 255.766 94.84 250.73 109.703C245.695 124.566 256.773 182.269 250.73 198.006C244.688 213.743 218 198.006 218 198.006" stroke="white" stroke-width="2"/>
<path d="M71.7 58.12C70.6733 58.12 69.7533 57.8933 68.94 57.44C68.14 56.9867 67.5067 56.3533 67.04 55.54C66.5733 54.7267 66.34 53.78 66.34 52.7C66.34 51.62 66.5733 50.68 67.04 49.88C67.5067 49.0667 68.14 48.4333 68.94 47.98C69.7533 47.5267 70.6733 47.3 71.7 47.3C72.5933 47.3 73.4 47.5 74.12 47.9C74.84 48.3 75.4133 48.9 75.84 49.7C76.28 50.5 76.5 51.5 76.5 52.7C76.5 53.9 76.2867 54.9 75.86 55.7C75.4467 56.5 74.88 57.1067 74.16 57.52C73.44 57.92 72.62 58.12 71.7 58.12ZM71.86 56.44C72.5267 56.44 73.1267 56.2867 73.66 55.98C74.2067 55.6733 74.6333 55.24 74.94 54.68C75.26 54.1067 75.42 53.4467 75.42 52.7C75.42 51.94 75.26 51.2867 74.94 50.74C74.6333 50.18 74.2067 49.7467 73.66 49.44C73.1267 49.1333 72.5267 48.98 71.86 48.98C71.18 48.98 70.5733 49.1333 70.04 49.44C69.5067 49.7467 69.08 50.18 68.76 50.74C68.44 51.2867 68.28 51.94 68.28 52.7C68.28 53.4467 68.44 54.1067 68.76 54.68C69.08 55.24 69.5067 55.6733 70.04 55.98C70.5733 56.2867 71.18 56.44 71.86 56.44ZM75.48 58V55.14L75.6 52.68L75.4 50.22V43.16H77.32V58H75.48ZM87.5328 58V55.76L87.4328 55.34V51.52C87.4328 50.7067 87.1928 50.08 86.7128 49.64C86.2461 49.1867 85.5395 48.96 84.5928 48.96C83.9661 48.96 83.3528 49.0667 82.7528 49.28C82.1528 49.48 81.6461 49.7533 81.2328 50.1L80.4328 48.66C80.9795 48.22 81.6328 47.8867 82.3928 47.66C83.1661 47.42 83.9728 47.3 84.8128 47.3C86.2661 47.3 87.3861 47.6533 88.1728 48.36C88.9595 49.0667 89.3528 50.1467 89.3528 51.6V58H87.5328ZM84.0528 58.12C83.2661 58.12 82.5728 57.9867 81.9728 57.72C81.3861 57.4533 80.9328 57.0867 80.6128 56.62C80.2928 56.14 80.1328 55.6 80.1328 55C80.1328 54.4267 80.2661 53.9067 80.5328 53.44C80.8128 52.9733 81.2595 52.6 81.8728 52.32C82.4995 52.04 83.3395 51.9 84.3928 51.9H87.7528V53.28H84.4728C83.5128 53.28 82.8661 53.44 82.5328 53.76C82.1995 54.08 82.0328 54.4667 82.0328 54.92C82.0328 55.44 82.2395 55.86 82.6528 56.18C83.0661 56.4867 83.6395 56.64 84.3728 56.64C85.0928 56.64 85.7195 56.48 86.2528 56.16C86.7995 55.84 87.1928 55.3733 87.4328 54.76L87.8128 56.08C87.5595 56.7067 87.1128 57.2067 86.4728 57.58C85.8328 57.94 85.0261 58.12 84.0528 58.12ZM98.5659 47.3C99.4326 47.3 100.193 47.4667 100.846 47.8C101.513 48.1333 102.033 48.64 102.406 49.32C102.779 50 102.966 50.86 102.966 51.9V58H101.046V52.12C101.046 51.0933 100.793 50.32 100.286 49.8C99.7926 49.28 99.0926 49.02 98.1859 49.02C97.5059 49.02 96.9126 49.1533 96.4059 49.42C95.8993 49.6867 95.5059 50.08 95.2259 50.6C94.9593 51.12 94.8259 51.7667 94.8259 52.54V58H92.9059V47.4H94.7459V50.26L94.4459 49.5C94.7926 48.8067 95.3259 48.2667 96.0459 47.88C96.7659 47.4933 97.6059 47.3 98.5659 47.3ZM111.159 62C110.186 62 109.239 61.86 108.319 61.58C107.413 61.3133 106.673 60.9267 106.099 60.42L107.019 58.94C107.513 59.3667 108.119 59.7 108.839 59.94C109.559 60.1933 110.313 60.32 111.099 60.32C112.353 60.32 113.273 60.0267 113.859 59.44C114.446 58.8533 114.739 57.96 114.739 56.76V54.52L114.939 52.42L114.839 50.3V47.4H116.659V56.56C116.659 58.4267 116.193 59.8 115.259 60.68C114.326 61.56 112.959 62 111.159 62ZM110.919 57.56C109.893 57.56 108.973 57.3467 108.159 56.92C107.359 56.48 106.719 55.8733 106.239 55.1C105.773 54.3267 105.539 53.4333 105.539 52.42C105.539 51.3933 105.773 50.5 106.239 49.74C106.719 48.9667 107.359 48.3667 108.159 47.94C108.973 47.5133 109.893 47.3 110.919 47.3C111.826 47.3 112.653 47.4867 113.399 47.86C114.146 48.22 114.739 48.78 115.179 49.54C115.633 50.3 115.859 51.26 115.859 52.42C115.859 53.5667 115.633 54.52 115.179 55.28C114.739 56.04 114.146 56.6133 113.399 57C112.653 57.3733 111.826 57.56 110.919 57.56ZM111.139 55.88C111.846 55.88 112.473 55.7333 113.019 55.44C113.566 55.1467 113.993 54.74 114.299 54.22C114.619 53.7 114.779 53.1 114.779 52.42C114.779 51.74 114.619 51.14 114.299 50.62C113.993 50.1 113.566 49.7 113.019 49.42C112.473 49.1267 111.846 48.98 111.139 48.98C110.433 48.98 109.799 49.1267 109.239 49.42C108.693 49.7 108.259 50.1 107.939 50.62C107.633 51.14 107.479 51.74 107.479 52.42C107.479 53.1 107.633 53.7 107.939 54.22C108.259 54.74 108.693 55.1467 109.239 55.44C109.799 55.7333 110.433 55.88 111.139 55.88ZM125.048 58.12C123.914 58.12 122.914 57.8867 122.048 57.42C121.194 56.9533 120.528 56.3133 120.048 55.5C119.581 54.6867 119.348 53.7533 119.348 52.7C119.348 51.6467 119.574 50.7133 120.028 49.9C120.494 49.0867 121.128 48.4533 121.928 48C122.741 47.5333 123.654 47.3 124.668 47.3C125.694 47.3 126.601 47.5267 127.388 47.98C128.174 48.4333 128.788 49.0733 129.228 49.9C129.681 50.7133 129.908 51.6667 129.908 52.76C129.908 52.84 129.901 52.9333 129.888 53.04C129.888 53.1467 129.881 53.2467 129.868 53.34H120.848V51.96H128.868L128.088 52.44C128.101 51.76 127.961 51.1533 127.668 50.62C127.374 50.0867 126.968 49.6733 126.448 49.38C125.941 49.0733 125.348 48.92 124.668 48.92C124.001 48.92 123.408 49.0733 122.888 49.38C122.368 49.6733 121.961 50.0933 121.668 50.64C121.374 51.1733 121.228 51.7867 121.228 52.48V52.8C121.228 53.5067 121.388 54.14 121.708 54.7C122.041 55.2467 122.501 55.6733 123.088 55.98C123.674 56.2867 124.348 56.44 125.108 56.44C125.734 56.44 126.301 56.3333 126.808 56.12C127.328 55.9067 127.781 55.5867 128.168 55.16L129.228 56.4C128.748 56.96 128.148 57.3867 127.428 57.68C126.721 57.9733 125.928 58.12 125.048 58.12ZM132.574 58V47.4H134.414V50.28L134.234 49.56C134.527 48.8267 135.021 48.2667 135.714 47.88C136.407 47.4933 137.261 47.3 138.274 47.3V49.16C138.194 49.1467 138.114 49.14 138.034 49.14C137.967 49.14 137.901 49.14 137.834 49.14C136.807 49.14 135.994 49.4467 135.394 50.06C134.794 50.6733 134.494 51.56 134.494 52.72V58H132.574ZM141.237 50.04C140.864 50.04 140.544 49.9133 140.277 49.66C140.01 49.3933 139.877 49.06 139.877 48.66C139.877 48.26 140.01 47.9333 140.277 47.68C140.544 47.4267 140.864 47.3 141.237 47.3C141.597 47.3 141.904 47.4267 142.157 47.68C142.424 47.9333 142.557 48.26 142.557 48.66C142.557 49.06 142.424 49.3933 142.157 49.66C141.904 49.9133 141.597 50.04 141.237 50.04ZM141.237 58.12C140.864 58.12 140.544 57.9933 140.277 57.74C140.01 57.4733 139.877 57.14 139.877 56.74C139.877 56.34 140.01 56.0133 140.277 55.76C140.544 55.5067 140.864 55.38 141.237 55.38C141.597 55.38 141.904 55.5067 142.157 55.76C142.424 56.0133 142.557 56.34 142.557 56.74C142.557 57.14 142.424 57.4733 142.157 57.74C141.904 57.9933 141.597 58.12 141.237 58.12ZM156.05 58V47.4H157.89V50.28L157.71 49.56C158.004 48.8267 158.497 48.2667 159.19 47.88C159.884 47.4933 160.737 47.3 161.75 47.3V49.16C161.67 49.1467 161.59 49.14 161.51 49.14C161.444 49.14 161.377 49.14 161.31 49.14C160.284 49.14 159.47 49.4467 158.87 50.06C158.27 50.6733 157.97 51.56 157.97 52.72V58H156.05ZM168.739 58.12C167.606 58.12 166.606 57.8867 165.739 57.42C164.886 56.9533 164.219 56.3133 163.739 55.5C163.273 54.6867 163.039 53.7533 163.039 52.7C163.039 51.6467 163.266 50.7133 163.719 49.9C164.186 49.0867 164.819 48.4533 165.619 48C166.433 47.5333 167.346 47.3 168.359 47.3C169.386 47.3 170.293 47.5267 171.079 47.98C171.866 48.4333 172.479 49.0733 172.919 49.9C173.373 50.7133 173.599 51.6667 173.599 52.76C173.599 52.84 173.593 52.9333 173.579 53.04C173.579 53.1467 173.573 53.2467 173.559 53.34H164.539V51.96H172.559L171.779 52.44C171.793 51.76 171.653 51.1533 171.359 50.62C171.066 50.0867 170.659 49.6733 170.139 49.38C169.633 49.0733 169.039 48.92 168.359 48.92C167.693 48.92 167.099 49.0733 166.579 49.38C166.059 49.6733 165.653 50.0933 165.359 50.64C165.066 51.1733 164.919 51.7867 164.919 52.48V52.8C164.919 53.5067 165.079 54.14 165.399 54.7C165.733 55.2467 166.193 55.6733 166.779 55.98C167.366 56.2867 168.039 56.44 168.799 56.44C169.426 56.44 169.993 56.3333 170.499 56.12C171.019 55.9067 171.473 55.5867 171.859 55.16L172.919 56.4C172.439 56.96 171.839 57.3867 171.119 57.68C170.413 57.9733 169.619 58.12 168.739 58.12ZM180.645 58.12C179.619 58.12 178.699 57.8933 177.885 57.44C177.085 56.9867 176.452 56.3533 175.985 55.54C175.519 54.7267 175.285 53.78 175.285 52.7C175.285 51.62 175.519 50.68 175.985 49.88C176.452 49.0667 177.085 48.4333 177.885 47.98C178.699 47.5267 179.619 47.3 180.645 47.3C181.539 47.3 182.345 47.5 183.065 47.9C183.785 48.3 184.359 48.9 184.785 49.7C185.225 50.5 185.445 51.5 185.445 52.7C185.445 53.9 185.232 54.9 184.805 55.7C184.392 56.5 183.825 57.1067 183.105 57.52C182.385 57.92 181.565 58.12 180.645 58.12ZM180.805 56.44C181.472 56.44 182.072 56.2867 182.605 55.98C183.152 55.6733 183.579 55.24 183.885 54.68C184.205 54.1067 184.365 53.4467 184.365 52.7C184.365 51.94 184.205 51.2867 183.885 50.74C183.579 50.18 183.152 49.7467 182.605 49.44C182.072 49.1333 181.472 48.98 180.805 48.98C180.125 48.98 179.519 49.1333 178.985 49.44C178.452 49.7467 178.025 50.18 177.705 50.74C177.385 51.2867 177.225 51.94 177.225 52.7C177.225 53.4467 177.385 54.1067 177.705 54.68C178.025 55.24 178.452 55.6733 178.985 55.98C179.519 56.2867 180.125 56.44 180.805 56.44ZM184.425 58V55.14L184.545 52.68L184.345 50.22V43.16H186.265V58H184.425ZM70.36 106.12C69.48 106.12 68.64 106 67.84 105.76C67.0533 105.52 66.4333 105.227 65.98 104.88L66.78 103.36C67.2333 103.667 67.7933 103.927 68.46 104.14C69.1267 104.353 69.8067 104.46 70.5 104.46C71.3933 104.46 72.0333 104.333 72.42 104.08C72.82 103.827 73.02 103.473 73.02 103.02C73.02 102.687 72.9 102.427 72.66 102.24C72.42 102.053 72.1 101.913 71.7 101.82C71.3133 101.727 70.88 101.647 70.4 101.58C69.92 101.5 69.44 101.407 68.96 101.3C68.48 101.18 68.04 101.02 67.64 100.82C67.24 100.607 66.92 100.32 66.68 99.96C66.44 99.5867 66.32 99.0933 66.32 98.48C66.32 97.84 66.5 97.28 66.86 96.8C67.22 96.32 67.7267 95.9533 68.38 95.7C69.0467 95.4333 69.8333 95.3 70.74 95.3C71.4333 95.3 72.1333 95.3867 72.84 95.56C73.56 95.72 74.1467 95.9533 74.6 96.26L73.78 97.78C73.3 97.46 72.8 97.24 72.28 97.12C71.76 97 71.24 96.94 70.72 96.94C69.88 96.94 69.2533 97.08 68.84 97.36C68.4267 97.6267 68.22 97.9733 68.22 98.4C68.22 98.76 68.34 99.04 68.58 99.24C68.8333 99.4267 69.1533 99.5733 69.54 99.68C69.94 99.7867 70.38 99.88 70.86 99.96C71.34 100.027 71.82 100.12 72.3 100.24C72.78 100.347 73.2133 100.5 73.6 100.7C74 100.9 74.32 101.18 74.56 101.54C74.8133 101.9 74.94 102.38 74.94 102.98C74.94 103.62 74.7533 104.173 74.38 104.64C74.0067 105.107 73.48 105.473 72.8 105.74C72.12 105.993 71.3067 106.12 70.36 106.12ZM81.7995 106.12C80.8929 106.12 80.0929 105.953 79.3995 105.62C78.7195 105.287 78.1862 104.78 77.7995 104.1C77.4262 103.407 77.2395 102.54 77.2395 101.5V95.4H79.1595V101.28C79.1595 102.32 79.4062 103.1 79.8995 103.62C80.4062 104.14 81.1129 104.4 82.0195 104.4C82.6862 104.4 83.2662 104.267 83.7595 104C84.2529 103.72 84.6329 103.32 84.8995 102.8C85.1662 102.267 85.2995 101.627 85.2995 100.88V95.4H87.2195V106H85.3995V103.14L85.6995 103.9C85.3529 104.607 84.8329 105.153 84.1395 105.54C83.4462 105.927 82.6662 106.12 81.7995 106.12ZM95.4947 106.12C94.4147 106.12 93.448 105.887 92.5947 105.42C91.7547 104.953 91.0947 104.313 90.6147 103.5C90.1347 102.687 89.8947 101.753 89.8947 100.7C89.8947 99.6467 90.1347 98.7133 90.6147 97.9C91.0947 97.0867 91.7547 96.4533 92.5947 96C93.448 95.5333 94.4147 95.3 95.4947 95.3C96.4547 95.3 97.308 95.4933 98.0547 95.88C98.8147 96.2533 99.4014 96.8133 99.8147 97.56L98.3547 98.5C98.008 97.98 97.5814 97.6 97.0747 97.36C96.5814 97.1067 96.048 96.98 95.4747 96.98C94.7814 96.98 94.1614 97.1333 93.6147 97.44C93.068 97.7467 92.6347 98.18 92.3147 98.74C91.9947 99.2867 91.8347 99.94 91.8347 100.7C91.8347 101.46 91.9947 102.12 92.3147 102.68C92.6347 103.24 93.068 103.673 93.6147 103.98C94.1614 104.287 94.7814 104.44 95.4747 104.44C96.048 104.44 96.5814 104.32 97.0747 104.08C97.5814 103.827 98.008 103.44 98.3547 102.92L99.8147 103.84C99.4014 104.573 98.8147 105.14 98.0547 105.54C97.308 105.927 96.4547 106.12 95.4947 106.12ZM106.764 106.12C105.684 106.12 104.718 105.887 103.864 105.42C103.024 104.953 102.364 104.313 101.884 103.5C101.404 102.687 101.164 101.753 101.164 100.7C101.164 99.6467 101.404 98.7133 101.884 97.9C102.364 97.0867 103.024 96.4533 103.864 96C104.718 95.5333 105.684 95.3 106.764 95.3C107.724 95.3 108.578 95.4933 109.324 95.88C110.084 96.2533 110.671 96.8133 111.084 97.56L109.624 98.5C109.278 97.98 108.851 97.6 108.344 97.36C107.851 97.1067 107.318 96.98 106.744 96.98C106.051 96.98 105.431 97.1333 104.884 97.44C104.338 97.7467 103.904 98.18 103.584 98.74C103.264 99.2867 103.104 99.94 103.104 100.7C103.104 101.46 103.264 102.12 103.584 102.68C103.904 103.24 104.338 103.673 104.884 103.98C105.431 104.287 106.051 104.44 106.744 104.44C107.318 104.44 107.851 104.32 108.344 104.08C108.851 103.827 109.278 103.44 109.624 102.92L111.084 103.84C110.671 104.573 110.084 105.14 109.324 105.54C108.578 105.927 107.724 106.12 106.764 106.12ZM118.134 106.12C117 106.12 116 105.887 115.134 105.42C114.28 104.953 113.614 104.313 113.134 103.5C112.667 102.687 112.434 101.753 112.434 100.7C112.434 99.6467 112.66 98.7133 113.114 97.9C113.58 97.0867 114.214 96.4533 115.014 96C115.827 95.5333 116.74 95.3 117.754 95.3C118.78 95.3 119.687 95.5267 120.474 95.98C121.26 96.4333 121.874 97.0733 122.314 97.9C122.767 98.7133 122.994 99.6667 122.994 100.76C122.994 100.84 122.987 100.933 122.974 101.04C122.974 101.147 122.967 101.247 122.954 101.34H113.934V99.96H121.954L121.174 100.44C121.187 99.76 121.047 99.1533 120.754 98.62C120.46 98.0867 120.054 97.6733 119.534 97.38C119.027 97.0733 118.434 96.92 117.754 96.92C117.087 96.92 116.494 97.0733 115.974 97.38C115.454 97.6733 115.047 98.0933 114.754 98.64C114.46 99.1733 114.314 99.7867 114.314 100.48V100.8C114.314 101.507 114.474 102.14 114.794 102.7C115.127 103.247 115.587 103.673 116.174 103.98C116.76 104.287 117.434 104.44 118.194 104.44C118.82 104.44 119.387 104.333 119.894 104.12C120.414 103.907 120.867 103.587 121.254 103.16L122.314 104.4C121.834 104.96 121.234 105.387 120.514 105.68C119.807 105.973 119.014 106.12 118.134 106.12ZM128.7 106.12C127.82 106.12 126.98 106 126.18 105.76C125.393 105.52 124.773 105.227 124.32 104.88L125.12 103.36C125.573 103.667 126.133 103.927 126.8 104.14C127.467 104.353 128.147 104.46 128.84 104.46C129.733 104.46 130.373 104.333 130.76 104.08C131.16 103.827 131.36 103.473 131.36 103.02C131.36 102.687 131.24 102.427 131 102.24C130.76 102.053 130.44 101.913 130.04 101.82C129.653 101.727 129.22 101.647 128.74 101.58C128.26 101.5 127.78 101.407 127.3 101.3C126.82 101.18 126.38 101.02 125.98 100.82C125.58 100.607 125.26 100.32 125.02 99.96C124.78 99.5867 124.66 99.0933 124.66 98.48C124.66 97.84 124.84 97.28 125.2 96.8C125.56 96.32 126.067 95.9533 126.72 95.7C127.387 95.4333 128.173 95.3 129.08 95.3C129.773 95.3 130.473 95.3867 131.18 95.56C131.9 95.72 132.487 95.9533 132.94 96.26L132.12 97.78C131.64 97.46 131.14 97.24 130.62 97.12C130.1 97 129.58 96.94 129.06 96.94C128.22 96.94 127.593 97.08 127.18 97.36C126.767 97.6267 126.56 97.9733 126.56 98.4C126.56 98.76 126.68 99.04 126.92 99.24C127.173 99.4267 127.493 99.5733 127.88 99.68C128.28 99.7867 128.72 99.88 129.2 99.96C129.68 100.027 130.16 100.12 130.64 100.24C131.12 100.347 131.553 100.5 131.94 100.7C132.34 100.9 132.66 101.18 132.9 101.54C133.153 101.9 133.28 102.38 133.28 102.98C133.28 103.62 133.093 104.173 132.72 104.64C132.347 105.107 131.82 105.473 131.14 105.74C130.46 105.993 129.647 106.12 128.7 106.12ZM138.719 106.12C137.839 106.12 136.999 106 136.199 105.76C135.413 105.52 134.793 105.227 134.339 104.88L135.139 103.36C135.593 103.667 136.153 103.927 136.819 104.14C137.486 104.353 138.166 104.46 138.859 104.46C139.753 104.46 140.393 104.333 140.779 104.08C141.179 103.827 141.379 103.473 141.379 103.02C141.379 102.687 141.259 102.427 141.019 102.24C140.779 102.053 140.459 101.913 140.059 101.82C139.673 101.727 139.239 101.647 138.759 101.58C138.279 101.5 137.799 101.407 137.319 101.3C136.839 101.18 136.399 101.02 135.999 100.82C135.599 100.607 135.279 100.32 135.039 99.96C134.799 99.5867 134.679 99.0933 134.679 98.48C134.679 97.84 134.859 97.28 135.219 96.8C135.579 96.32 136.086 95.9533 136.739 95.7C137.406 95.4333 138.193 95.3 139.099 95.3C139.793 95.3 140.493 95.3867 141.199 95.56C141.919 95.72 142.506 95.9533 142.959 96.26L142.139 97.78C141.659 97.46 141.159 97.24 140.639 97.12C140.119 97 139.599 96.94 139.079 96.94C138.239 96.94 137.613 97.08 137.199 97.36C136.786 97.6267 136.579 97.9733 136.579 98.4C136.579 98.76 136.699 99.04 136.939 99.24C137.193 99.4267 137.513 99.5733 137.899 99.68C138.299 99.7867 138.739 99.88 139.219 99.96C139.699 100.027 140.179 100.12 140.659 100.24C141.139 100.347 141.573 100.5 141.959 100.7C142.359 100.9 142.679 101.18 142.919 101.54C143.173 101.9 143.299 102.38 143.299 102.98C143.299 103.62 143.113 104.173 142.739 104.64C142.366 105.107 141.839 105.473 141.159 105.74C140.479 105.993 139.666 106.12 138.719 106.12ZM146.159 98.04C145.786 98.04 145.466 97.9133 145.199 97.66C144.932 97.3933 144.799 97.06 144.799 96.66C144.799 96.26 144.932 95.9333 145.199 95.68C145.466 95.4267 145.786 95.3 146.159 95.3C146.519 95.3 146.826 95.4267 147.079 95.68C147.346 95.9333 147.479 96.26 147.479 96.66C147.479 97.06 147.346 97.3933 147.079 97.66C146.826 97.9133 146.519 98.04 146.159 98.04ZM146.159 106.12C145.786 106.12 145.466 105.993 145.199 105.74C144.932 105.473 144.799 105.14 144.799 104.74C144.799 104.34 144.932 104.013 145.199 103.76C145.466 103.507 145.786 103.38 146.159 103.38C146.519 103.38 146.826 103.507 147.079 103.76C147.346 104.013 147.479 104.34 147.479 104.74C147.479 105.14 147.346 105.473 147.079 105.74C146.826 105.993 146.519 106.12 146.159 106.12ZM160.241 110C159.268 110 158.321 109.86 157.401 109.58C156.495 109.313 155.755 108.927 155.181 108.42L156.101 106.94C156.595 107.367 157.201 107.7 157.921 107.94C158.641 108.193 159.395 108.32 160.181 108.32C161.435 108.32 162.355 108.027 162.941 107.44C163.528 106.853 163.821 105.96 163.821 104.76V102.52L164.021 100.42L163.921 98.3V95.4H165.741V104.56C165.741 106.427 165.275 107.8 164.341 108.68C163.408 109.56 162.041 110 160.241 110ZM160.001 105.56C158.975 105.56 158.055 105.347 157.241 104.92C156.441 104.48 155.801 103.873 155.321 103.1C154.855 102.327 154.621 101.433 154.621 100.42C154.621 99.3933 154.855 98.5 155.321 97.74C155.801 96.9667 156.441 96.3667 157.241 95.94C158.055 95.5133 158.975 95.3 160.001 95.3C160.908 95.3 161.735 95.4867 162.481 95.86C163.228 96.22 163.821 96.78 164.261 97.54C164.715 98.3 164.941 99.26 164.941 100.42C164.941 101.567 164.715 102.52 164.261 103.28C163.821 104.04 163.228 104.613 162.481 105C161.735 105.373 160.908 105.56 160.001 105.56ZM160.221 103.88C160.928 103.88 161.555 103.733 162.101 103.44C162.648 103.147 163.075 102.74 163.381 102.22C163.701 101.7 163.861 101.1 163.861 100.42C163.861 99.74 163.701 99.14 163.381 98.62C163.075 98.1 162.648 97.7 162.101 97.42C161.555 97.1267 160.928 96.98 160.221 96.98C159.515 96.98 158.881 97.1267 158.321 97.42C157.775 97.7 157.341 98.1 157.021 98.62C156.715 99.14 156.561 99.74 156.561 100.42C156.561 101.1 156.715 101.7 157.021 102.22C157.341 102.74 157.775 103.147 158.321 103.44C158.881 103.733 159.515 103.88 160.221 103.88ZM169.41 106V95.4H171.25V98.28L171.07 97.56C171.363 96.8267 171.857 96.2667 172.55 95.88C173.243 95.4933 174.097 95.3 175.11 95.3V97.16C175.03 97.1467 174.95 97.14 174.87 97.14C174.803 97.14 174.737 97.14 174.67 97.14C173.643 97.14 172.83 97.4467 172.23 98.06C171.63 98.6733 171.33 99.56 171.33 100.72V106H169.41ZM182.099 106.12C180.965 106.12 179.965 105.887 179.099 105.42C178.245 104.953 177.579 104.313 177.099 103.5C176.632 102.687 176.399 101.753 176.399 100.7C176.399 99.6467 176.625 98.7133 177.079 97.9C177.545 97.0867 178.179 96.4533 178.979 96C179.792 95.5333 180.705 95.3 181.719 95.3C182.745 95.3 183.652 95.5267 184.439 95.98C185.225 96.4333 185.839 97.0733 186.279 97.9C186.732 98.7133 186.959 99.6667 186.959 100.76C186.959 100.84 186.952 100.933 186.939 101.04C186.939 101.147 186.932 101.247 186.919 101.34H177.899V99.96H185.919L185.139 100.44C185.152 99.76 185.012 99.1533 184.719 98.62C184.425 98.0867 184.019 97.6733 183.499 97.38C182.992 97.0733 182.399 96.92 181.719 96.92C181.052 96.92 180.459 97.0733 179.939 97.38C179.419 97.6733 179.012 98.0933 178.719 98.64C178.425 99.1733 178.279 99.7867 178.279 100.48V100.8C178.279 101.507 178.439 102.14 178.759 102.7C179.092 103.247 179.552 103.673 180.139 103.98C180.725 104.287 181.399 104.44 182.159 104.44C182.785 104.44 183.352 104.333 183.859 104.12C184.379 103.907 184.832 103.587 185.219 103.16L186.279 104.4C185.799 104.96 185.199 105.387 184.479 105.68C183.772 105.973 182.979 106.12 182.099 106.12ZM194.345 106.12C193.211 106.12 192.211 105.887 191.345 105.42C190.491 104.953 189.825 104.313 189.345 103.5C188.878 102.687 188.645 101.753 188.645 100.7C188.645 99.6467 188.871 98.7133 189.325 97.9C189.791 97.0867 190.425 96.4533 191.225 96C192.038 95.5333 192.951 95.3 193.965 95.3C194.991 95.3 195.898 95.5267 196.685 95.98C197.471 96.4333 198.085 97.0733 198.525 97.9C198.978 98.7133 199.205 99.6667 199.205 100.76C199.205 100.84 199.198 100.933 199.185 101.04C199.185 101.147 199.178 101.247 199.165 101.34H190.145V99.96H198.165L197.385 100.44C197.398 99.76 197.258 99.1533 196.965 98.62C196.671 98.0867 196.265 97.6733 195.745 97.38C195.238 97.0733 194.645 96.92 193.965 96.92C193.298 96.92 192.705 97.0733 192.185 97.38C191.665 97.6733 191.258 98.0933 190.965 98.64C190.671 99.1733 190.525 99.7867 190.525 100.48V100.8C190.525 101.507 190.685 102.14 191.005 102.7C191.338 103.247 191.798 103.673 192.385 103.98C192.971 104.287 193.645 104.44 194.405 104.44C195.031 104.44 195.598 104.333 196.105 104.12C196.625 103.907 197.078 103.587 197.465 103.16L198.525 104.4C198.045 104.96 197.445 105.387 196.725 105.68C196.018 105.973 195.225 106.12 194.345 106.12ZM207.531 95.3C208.397 95.3 209.157 95.4667 209.811 95.8C210.477 96.1333 210.997 96.64 211.371 97.32C211.744 98 211.931 98.86 211.931 99.9V106H210.011V100.12C210.011 99.0933 209.757 98.32 209.251 97.8C208.757 97.28 208.057 97.02 207.151 97.02C206.471 97.02 205.877 97.1533 205.371 97.42C204.864 97.6867 204.471 98.08 204.191 98.6C203.924 99.12 203.791 99.7667 203.791 100.54V106H201.871V95.4H203.711V98.26L203.411 97.5C203.757 96.8067 204.291 96.2667 205.011 95.88C205.731 95.4933 206.571 95.3 207.531 95.3ZM69.56 154L65.62 143.4H67.44L70.94 153H70.08L73.72 143.4H75.34L78.9 153H78.06L81.64 143.4H83.36L79.4 154H77.56L74.22 145.24H74.78L71.4 154H69.56ZM91.5563 154V151.76L91.4563 151.34V147.52C91.4563 146.707 91.2163 146.08 90.7363 145.64C90.2696 145.187 89.5629 144.96 88.6163 144.96C87.9896 144.96 87.3763 145.067 86.7763 145.28C86.1763 145.48 85.6696 145.753 85.2563 146.1L84.4563 144.66C85.0029 144.22 85.6563 143.887 86.4163 143.66C87.1896 143.42 87.9963 143.3 88.8363 143.3C90.2896 143.3 91.4096 143.653 92.1963 144.36C92.9829 145.067 93.3763 146.147 93.3763 147.6V154H91.5563ZM88.0763 154.12C87.2896 154.12 86.5963 153.987 85.9963 153.72C85.4096 153.453 84.9563 153.087 84.6363 152.62C84.3163 152.14 84.1563 151.6 84.1563 151C84.1563 150.427 84.2896 149.907 84.5563 149.44C84.8363 148.973 85.2829 148.6 85.8963 148.32C86.5229 148.04 87.3629 147.9 88.4163 147.9H91.7763V149.28H88.4963C87.5363 149.28 86.8896 149.44 86.5563 149.76C86.2229 150.08 86.0563 150.467 86.0563 150.92C86.0563 151.44 86.2629 151.86 86.6763 152.18C87.0896 152.487 87.6629 152.64 88.3963 152.64C89.1163 152.64 89.7429 152.48 90.2763 152.16C90.8229 151.84 91.2163 151.373 91.4563 150.76L91.8363 152.08C91.5829 152.707 91.1363 153.207 90.4963 153.58C89.8563 153.94 89.0496 154.12 88.0763 154.12ZM96.9294 154V143.4H98.7694V146.28L98.5894 145.56C98.8827 144.827 99.376 144.267 100.069 143.88C100.763 143.493 101.616 143.3 102.629 143.3V145.16C102.549 145.147 102.469 145.14 102.389 145.14C102.323 145.14 102.256 145.14 102.189 145.14C101.163 145.14 100.349 145.447 99.7494 146.06C99.1494 146.673 98.8494 147.56 98.8494 148.72V154H96.9294ZM110.656 143.3C111.522 143.3 112.282 143.467 112.936 143.8C113.602 144.133 114.122 144.64 114.496 145.32C114.869 146 115.056 146.86 115.056 147.9V154H113.136V148.12C113.136 147.093 112.882 146.32 112.376 145.8C111.882 145.28 111.182 145.02 110.276 145.02C109.596 145.02 109.002 145.153 108.496 145.42C107.989 145.687 107.596 146.08 107.316 146.6C107.049 147.12 106.916 147.767 106.916 148.54V154H104.996V143.4H106.836V146.26L106.536 145.5C106.882 144.807 107.416 144.267 108.136 143.88C108.856 143.493 109.696 143.3 110.656 143.3ZM118.609 154V143.4H120.529V154H118.609ZM119.569 141.36C119.196 141.36 118.882 141.24 118.629 141C118.389 140.76 118.269 140.467 118.269 140.12C118.269 139.76 118.389 139.46 118.629 139.22C118.882 138.98 119.196 138.86 119.569 138.86C119.942 138.86 120.249 138.98 120.489 139.22C120.742 139.447 120.869 139.733 120.869 140.08C120.869 140.44 120.749 140.747 120.509 141C120.269 141.24 119.956 141.36 119.569 141.36ZM129.855 143.3C130.722 143.3 131.482 143.467 132.135 143.8C132.802 144.133 133.322 144.64 133.695 145.32C134.068 146 134.255 146.86 134.255 147.9V154H132.335V148.12C132.335 147.093 132.082 146.32 131.575 145.8C131.082 145.28 130.382 145.02 129.475 145.02C128.795 145.02 128.202 145.153 127.695 145.42C127.188 145.687 126.795 146.08 126.515 146.6C126.248 147.12 126.115 147.767 126.115 148.54V154H124.195V143.4H126.035V146.26L125.735 145.5C126.082 144.807 126.615 144.267 127.335 143.88C128.055 143.493 128.895 143.3 129.855 143.3ZM142.448 158C141.475 158 140.528 157.86 139.608 157.58C138.702 157.313 137.962 156.927 137.388 156.42L138.308 154.94C138.802 155.367 139.408 155.7 140.128 155.94C140.848 156.193 141.602 156.32 142.388 156.32C143.642 156.32 144.562 156.027 145.148 155.44C145.735 154.853 146.028 153.96 146.028 152.76V150.52L146.228 148.42L146.128 146.3V143.4H147.948V152.56C147.948 154.427 147.482 155.8 146.548 156.68C145.615 157.56 144.248 158 142.448 158ZM142.208 153.56C141.182 153.56 140.262 153.347 139.448 152.92C138.648 152.48 138.008 151.873 137.528 151.1C137.062 150.327 136.828 149.433 136.828 148.42C136.828 147.393 137.062 146.5 137.528 145.74C138.008 144.967 138.648 144.367 139.448 143.94C140.262 143.513 141.182 143.3 142.208 143.3C143.115 143.3 143.942 143.487 144.688 143.86C145.435 144.22 146.028 144.78 146.468 145.54C146.922 146.3 147.148 147.26 147.148 148.42C147.148 149.567 146.922 150.52 146.468 151.28C146.028 152.04 145.435 152.613 144.688 153C143.942 153.373 143.115 153.56 142.208 153.56ZM142.428 151.88C143.135 151.88 143.762 151.733 144.308 151.44C144.855 151.147 145.282 150.74 145.588 150.22C145.908 149.7 146.068 149.1 146.068 148.42C146.068 147.74 145.908 147.14 145.588 146.62C145.282 146.1 144.855 145.7 144.308 145.42C143.762 145.127 143.135 144.98 142.428 144.98C141.722 144.98 141.088 145.127 140.528 145.42C139.982 145.7 139.548 146.1 139.228 146.62C138.922 147.14 138.768 147.74 138.768 148.42C138.768 149.1 138.922 149.7 139.228 150.22C139.548 150.74 139.982 151.147 140.528 151.44C141.088 151.733 141.722 151.88 142.428 151.88ZM152.077 146.04C151.704 146.04 151.384 145.913 151.117 145.66C150.85 145.393 150.717 145.06 150.717 144.66C150.717 144.26 150.85 143.933 151.117 143.68C151.384 143.427 151.704 143.3 152.077 143.3C152.437 143.3 152.744 143.427 152.997 143.68C153.264 143.933 153.397 144.26 153.397 144.66C153.397 145.06 153.264 145.393 152.997 145.66C152.744 145.913 152.437 146.04 152.077 146.04ZM152.077 154.12C151.704 154.12 151.384 153.993 151.117 153.74C150.85 153.473 150.717 153.14 150.717 152.74C150.717 152.34 150.85 152.013 151.117 151.76C151.384 151.507 151.704 151.38 152.077 151.38C152.437 151.38 152.744 151.507 152.997 151.76C153.264 152.013 153.397 152.34 153.397 152.74C153.397 153.14 153.264 153.473 152.997 153.74C152.744 153.993 152.437 154.12 152.077 154.12ZM166.059 154.12C164.993 154.12 164.046 153.887 163.219 153.42C162.393 152.953 161.739 152.313 161.259 151.5C160.779 150.673 160.539 149.74 160.539 148.7C160.539 147.647 160.779 146.713 161.259 145.9C161.739 145.087 162.393 144.453 163.219 144C164.046 143.533 164.993 143.3 166.059 143.3C167.113 143.3 168.053 143.533 168.879 144C169.719 144.453 170.373 145.087 170.839 145.9C171.319 146.7 171.559 147.633 171.559 148.7C171.559 149.753 171.319 150.687 170.839 151.5C170.373 152.313 169.719 152.953 168.879 153.42C168.053 153.887 167.113 154.12 166.059 154.12ZM166.059 152.44C166.739 152.44 167.346 152.287 167.879 151.98C168.426 151.673 168.853 151.24 169.159 150.68C169.466 150.107 169.619 149.447 169.619 148.7C169.619 147.94 169.466 147.287 169.159 146.74C168.853 146.18 168.426 145.747 167.879 145.44C167.346 145.133 166.739 144.98 166.059 144.98C165.379 144.98 164.773 145.133 164.239 145.44C163.706 145.747 163.279 146.18 162.959 146.74C162.639 147.287 162.479 147.94 162.479 148.7C162.479 149.447 162.639 150.107 162.959 150.68C163.279 151.24 163.706 151.673 164.239 151.98C164.773 152.287 165.379 152.44 166.059 152.44ZM174.215 154V143.4H176.055V146.28L175.875 145.56C176.168 144.827 176.661 144.267 177.355 143.88C178.048 143.493 178.901 143.3 179.915 143.3V145.16C179.835 145.147 179.755 145.14 179.675 145.14C179.608 145.14 179.541 145.14 179.475 145.14C178.448 145.14 177.635 145.447 177.035 146.06C176.435 146.673 176.135 147.56 176.135 148.72V154H174.215ZM188.08 154V151.76L187.98 151.34V147.52C187.98 146.707 187.74 146.08 187.26 145.64C186.793 145.187 186.086 144.96 185.14 144.96C184.513 144.96 183.9 145.067 183.3 145.28C182.7 145.48 182.193 145.753 181.78 146.1L180.98 144.66C181.526 144.22 182.18 143.887 182.94 143.66C183.713 143.42 184.52 143.3 185.36 143.3C186.813 143.3 187.933 143.653 188.72 144.36C189.506 145.067 189.9 146.147 189.9 147.6V154H188.08ZM184.6 154.12C183.813 154.12 183.12 153.987 182.52 153.72C181.933 153.453 181.48 153.087 181.16 152.62C180.84 152.14 180.68 151.6 180.68 151C180.68 150.427 180.813 149.907 181.08 149.44C181.36 148.973 181.806 148.6 182.42 148.32C183.046 148.04 183.886 147.9 184.94 147.9H188.3V149.28H185.02C184.06 149.28 183.413 149.44 183.08 149.76C182.746 150.08 182.58 150.467 182.58 150.92C182.58 151.44 182.786 151.86 183.2 152.18C183.613 152.487 184.186 152.64 184.92 152.64C185.64 152.64 186.266 152.48 186.8 152.16C187.346 151.84 187.74 151.373 187.98 150.76L188.36 152.08C188.106 152.707 187.66 153.207 187.02 153.58C186.38 153.94 185.573 154.12 184.6 154.12ZM199.113 143.3C199.979 143.3 200.739 143.467 201.393 143.8C202.059 144.133 202.579 144.64 202.953 145.32C203.326 146 203.513 146.86 203.513 147.9V154H201.593V148.12C201.593 147.093 201.339 146.32 200.833 145.8C200.339 145.28 199.639 145.02 198.733 145.02C198.053 145.02 197.459 145.153 196.953 145.42C196.446 145.687 196.053 146.08 195.773 146.6C195.506 147.12 195.373 147.767 195.373 148.54V154H193.453V143.4H195.293V146.26L194.993 145.5C195.339 144.807 195.873 144.267 196.593 143.88C197.313 143.493 198.153 143.3 199.113 143.3ZM211.706 158C210.733 158 209.786 157.86 208.866 157.58C207.959 157.313 207.219 156.927 206.646 156.42L207.566 154.94C208.059 155.367 208.666 155.7 209.386 155.94C210.106 156.193 210.859 156.32 211.646 156.32C212.899 156.32 213.819 156.027 214.406 155.44C214.993 154.853 215.286 153.96 215.286 152.76V150.52L215.486 148.42L215.386 146.3V143.4H217.206V152.56C217.206 154.427 216.739 155.8 215.806 156.68C214.873 157.56 213.506 158 211.706 158ZM211.466 153.56C210.439 153.56 209.519 153.347 208.706 152.92C207.906 152.48 207.266 151.873 206.786 151.1C206.319 150.327 206.086 149.433 206.086 148.42C206.086 147.393 206.319 146.5 206.786 145.74C207.266 144.967 207.906 144.367 208.706 143.94C209.519 143.513 210.439 143.3 211.466 143.3C212.373 143.3 213.199 143.487 213.946 143.86C214.693 144.22 215.286 144.78 215.726 145.54C216.179 146.3 216.406 147.26 216.406 148.42C216.406 149.567 216.179 150.52 215.726 151.28C215.286 152.04 214.693 152.613 213.946 153C213.199 153.373 212.373 153.56 211.466 153.56ZM211.686 151.88C212.393 151.88 213.019 151.733 213.566 151.44C214.113 151.147 214.539 150.74 214.846 150.22C215.166 149.7 215.326 149.1 215.326 148.42C215.326 147.74 215.166 147.14 214.846 146.62C214.539 146.1 214.113 145.7 213.566 145.42C213.019 145.127 212.393 144.98 211.686 144.98C210.979 144.98 210.346 145.127 209.786 145.42C209.239 145.7 208.806 146.1 208.486 146.62C208.179 147.14 208.026 147.74 208.026 148.42C208.026 149.1 208.179 149.7 208.486 150.22C208.806 150.74 209.239 151.147 209.786 151.44C210.346 151.733 210.979 151.88 211.686 151.88ZM225.595 154.12C224.461 154.12 223.461 153.887 222.595 153.42C221.741 152.953 221.075 152.313 220.595 151.5C220.128 150.687 219.895 149.753 219.895 148.7C219.895 147.647 220.121 146.713 220.575 145.9C221.041 145.087 221.675 144.453 222.475 144C223.288 143.533 224.201 143.3 225.215 143.3C226.241 143.3 227.148 143.527 227.935 143.98C228.721 144.433 229.335 145.073 229.775 145.9C230.228 146.713 230.455 147.667 230.455 148.76C230.455 148.84 230.448 148.933 230.435 149.04C230.435 149.147 230.428 149.247 230.415 149.34H221.395V147.96H229.415L228.635 148.44C228.648 147.76 228.508 147.153 228.215 146.62C227.921 146.087 227.515 145.673 226.995 145.38C226.488 145.073 225.895 144.92 225.215 144.92C224.548 144.92 223.955 145.073 223.435 145.38C222.915 145.673 222.508 146.093 222.215 146.64C221.921 147.173 221.775 147.787 221.775 148.48V148.8C221.775 149.507 221.935 150.14 222.255 150.7C222.588 151.247 223.048 151.673 223.635 151.98C224.221 152.287 224.895 152.44 225.655 152.44C226.281 152.44 226.848 152.333 227.355 152.12C227.875 151.907 228.328 151.587 228.715 151.16L229.775 152.4C229.295 152.96 228.695 153.387 227.975 153.68C227.268 153.973 226.475 154.12 225.595 154.12Z" fill="white"/>
</svg>
